<?xml version="1.0" encoding="utf-8"?>
<!-- Generator: Adobe Illustrator 16.0.0, SVG Export Plug-In . SVG Version: 6.00 Build 0)  -->
<!DOCTYPE svg PUBLIC "-//W3C//DTD SVG 1.1//EN" "http://www.w3.org/Graphics/SVG/1.1/DTD/svg11.dtd">
<svg version="1.1" id="图层_1" xmlns="http://www.w3.org/2000/svg" xmlns:xlink="http://www.w3.org/1999/xlink" x="0px" y="0px"
	 width="135px" height="35px" viewBox="0 0 135 35" enable-background="new 0 0 135 35" xml:space="preserve">
<g>
	<path fill="#999999" d="M66.201,12.802v15.263c0,1.067-0.18,1.801-0.538,2.198c-0.359,0.397-0.922,0.542-1.688,0.843
		c-0.766,0.3-1.257,0.451-1.475,0.451c-0.218,0-0.354-0.127-0.412-0.379c-0.189-0.796-0.501-1.162-0.936-1.512
		c-0.435-0.35-1.352-0.768-2.751-1.253l0.113-0.611c1.663,0.331,2.826,0.495,3.488,0.495c0.661,0,1.073-0.103,1.234-0.306
		s0.241-0.539,0.241-1.005V7.414c0-1.67-0.019-2.286-0.057-2.675c2.553,0.699,3.829,1.204,3.829,1.515
		c0,0.156-0.35,0.437-1.049,0.845v1.539c0.549,2.678,1.276,5.009,2.184,6.989c2.421-2.524,3.768-5.522,4.845-7.096
		c0.473,0.37,0.983,0.842,1.532,1.412c0.548,0.574,0.883,0.943,1.007,1.108c0.123,0.164,0.185,0.306,0.185,0.423
		c0,0.213-0.189,0.281-0.567,0.203c-0.151-0.02-0.284-0.029-0.397-0.029c-0.379,0-0.227-0.226-0.831,0.221
		c-1.286,0.971-3.239,3.447-5.375,4.632c2.117,4.33,5.464,7.398,10.04,9.203l-0.114,0.699c-0.453-0.058-0.879-0.087-1.276-0.087
		c-0.396,0-0.756,0.107-1.077,0.32c-0.321,0.214-0.644,0.592-0.965,1.136c-0.095,0.155-0.208,0.233-0.34,0.233
		c-0.435,0-1.726-1.224-3.871-3.67C69.033,21.889,67.373,18.045,66.201,12.802z"/>
	<path fill="#999999" d="M86.734,21.19H85.09v0.786c0,0.175-0.033,0.292-0.1,0.35c-0.066,0.059-0.274,0.17-0.624,0.336
		c-0.351,0.164-0.789,0.304-1.318,0.421c-0.151,0-0.228-0.077-0.228-0.233l0.057-1.719c0.02-0.503,0.029-1.145,0.029-1.921v-3.538
		c0-0.815-0.029-1.641-0.086-2.477c0.983,0.331,1.854,0.608,2.609,0.996h1.504V11.39h-3.404c-0.51,0-0.907,0.059-1.19,0.175
		l-0.737-1.34c0.396,0.098,0.869,0.146,1.418,0.146h3.914V7.56c0-0.972-0.02-2.042-0.058-2.799c2.269,0.523,3.403,0.98,3.403,1.369
		c0,0.194-0.359,0.417-1.078,0.669v3.571h2.156l0.766-1.048c0.208-0.292,0.396-0.437,0.567-0.437c0.17,0,0.567,0.319,1.19,0.961
		c0.624,0.641,0.937,1.059,0.937,1.253s-0.181,0.29-0.539,0.29h-5.077v2.802h1.476l0.567-0.675c0.15-0.214,0.293-0.321,0.425-0.321
		s0.563,0.254,1.291,0.758c0.728,0.506,1.092,0.84,1.092,1.005c0,0.166-0.303,0.433-0.907,0.801v2.401
		c0,0.875,0.014,1.589,0.042,2.142s0.042,0.884,0.042,0.99c0,0.107-0.084,0.214-0.255,0.32c-0.17,0.108-0.506,0.258-1.007,0.452
		s-0.817,0.291-0.949,0.291c-0.133,0-0.199-0.155-0.199-0.467V21.19h-1.73v2.971h2.1l0.794-1.049
		c0.207-0.29,0.392-0.437,0.553-0.437c0.16,0,0.571,0.32,1.233,0.962c0.662,0.641,0.993,1.058,0.993,1.252s-0.198,0.291-0.596,0.291
		h-5.077v5.243c0,0.193-0.023,0.31-0.07,0.349c-0.048,0.038-0.246,0.141-0.596,0.307c-0.35,0.164-0.699,0.306-1.049,0.422
		c-0.351,0.117-0.563,0.175-0.639,0.175c-0.076,0-0.113-0.088-0.113-0.263l0.057-1.369c0.038-0.931,0.057-1.796,0.057-2.592v-2.271
		h-4.51c-0.51,0-0.907,0.058-1.19,0.175l-0.511-1.34c0.397,0.098,0.869,0.146,1.418,0.146h4.793V21.19z M85.09,17.207h5.729v-2.031
		H85.09V17.207z M90.818,18.11H85.09v2.09h5.729V18.11z M98.845,7.414h3.091l0.624-0.932c0.188-0.293,0.373-0.437,0.554-0.437
		c0.179,0,0.676,0.295,1.488,0.887c0.813,0.593,1.22,0.976,1.22,1.151c0,0.175-0.369,0.455-1.106,0.844v19.485
		c0,0.719-0.085,1.258-0.256,1.616c-0.169,0.36-0.563,0.743-1.176,1.152c-0.615,0.406-1.021,0.591-1.22,0.591
		s-0.346-0.127-0.44-0.417c-0.208-0.661-0.543-1.161-1.006-1.5c-0.464-0.34-1.366-0.763-2.709-1.268l0.113-0.67
		c1.532,0.33,2.524,0.495,2.979,0.495s0.77-0.048,0.95-0.145c0.18-0.099,0.269-0.32,0.269-0.671v-6.309h-4.083
		c-0.447,2.665-0.833,3.877-1.985,5.537c-1.154,1.661-3.054,3.191-5.701,4.842l-0.312-0.429c2.022-1.885,3.384-3.434,4.084-4.646
		c0.699-1.213,1.167-2.679,1.404-4.397c0.235-1.719,0.382-3.729,0.438-6.03c0.058-2.3,0.076-5.674,0.058-10.119
		C97.161,6.473,98.069,6.929,98.845,7.414z M102.219,15.048h-3.828l-0.199,5.194h4.027V15.048z M98.419,14.028h3.8V8.434h-3.687
		C98.494,10.608,98.457,12.94,98.419,14.028z"/>
	<path id="_x32__7_" fill="#999999" d="M113.85,19.869c0,0,5.949-4.367,8.805-3.693c2.854,0.673,4.278,4.922,5.738,4.132
		c1.461-0.789,2.872-4.886,6.738,1.229c0,0-2.942-1.882-4.106-1.234c-1.164,0.649-3.044,2.669-3.388,2.641
		c-0.343-0.026-2.196-4.042-6.087-3.923S113.85,19.869,113.85,19.869z"/>
	<g>
		<g>
			<path fill="#999999" d="M122.793,20.174c-0.752,0.995-1.559,1.907-2.426,2.729c-2.978,2.825-7.082,6.207-12.754,8.245
				l0.227,0.583c4.462-1.165,7.777-3.406,10.387-4.824c2.609-1.416,4.731-3.148,6.367-5.198c0.097-0.122,0.194-0.246,0.291-0.373
				C124.316,20.835,123.622,20.389,122.793,20.174z"/>
			<path fill="#999999" d="M126.38,19.178c-0.507-0.582-1.066-1.277-1.718-1.862c-0.392,0.693-0.803,1.356-1.236,1.987
				c0.809,0.276,1.492,0.725,2.059,1.216C125.782,20.098,126.081,19.65,126.38,19.178z"/>
			<path fill="#999999" d="M115.589,14.936l0.396-0.553c0.737-1.01,1.509-2.039,2.114-3.05h9.273
				c-0.609,1.829-1.416,3.534-2.216,5.075c0.645,0.55,1.192,1.189,1.68,1.761c0.03,0.036,0.063,0.074,0.095,0.111
				c0.866-1.452,1.736-3.108,2.61-4.976c0.208-0.427,0.388-0.728,0.539-0.903c0.151-0.174,0.439-0.28,0.865-0.32
				c0.425-0.038,0.638-0.185,0.638-0.437c0-0.253-0.478-0.768-1.433-1.544c-0.954-0.776-1.526-1.164-1.716-1.164
				c-0.095,0-0.18,0.058-0.255,0.174l-1.017,1.278h-8.565l1.353-2.464c0.246-0.427,0.554-1.167,1.089-1.389
				c0.344-0.142,0.699-0.325,0.587-0.456c-0.321-0.379-2.199-1.319-3.457-1.389c-1.854,6.814-5.134,11.77-9.842,16.1l0.454,0.494
				C111.675,19.15,113.943,17.033,115.589,14.936z"/>
		</g>
	</g>
	<path fill="#999999" d="M58.788,14.202l1.019-1.216c0.11-0.131,0.229-0.197,0.358-0.197c0.128,0,0.449,0.184,0.963,0.552
		c0.514,0.367,0.904,0.659,1.17,0.876c0.266,0.217,0.399,0.42,0.399,0.608s-0.203,0.358-0.606,0.509
		c-0.275,0.095-0.551,0.604-0.826,1.526c-0.771,2.584-1.465,4.516-2.079,5.798c-0.615,1.282-1.386,2.357-2.313,3.225
		c-0.927,0.866-2.364,1.903-4.309,3.11l-0.249-0.538c1.964-1.545,3.447-3.3,4.447-5.261c1-1.959,1.767-4.674,2.299-8.143h-5.314
		c-0.459,0-0.808,0.056-1.046,0.169l-0.468-1.158c0.404,0.094,0.891,0.14,1.459,0.14H58.788z"/>
</g>
<g>
	<g>
		<path id="_x31__9_" fill="#999999" d="M39.726,27.603c0,0-4.228,9.685-15.771,6.892C12.411,31.703,12.814,22.33,0.13,22.192
			c0,0,3.053-2.753,6.342-2.753c3.288,0,5.838,2.168,8.086,5.234c2.249,3.066,6.309,8.787,12.282,8.649c0,0-4.183-0.456-8.12-6.104
			c-3.938-5.646-3.557-13.228,1.61-18.672c5.168-5.446,1.742-7.169,1.742-7.169S33.786,7.615,33.987,0c0,0,3.523,12.405,8.12,6.789
			c0,0,0.269,11.027-5.671,12.888c0,0,1.846-1.413,1.074-4.688c-0.771-3.272-4.519-5.455-8.725-4.675
			c-4.206,0.782-8.303,4.87-7.462,11.35c0.841,6.479,7.149,10.752,12.16,9.649C38.495,30.21,39.726,27.603,39.726,27.603z"/>
		<path id="_x32__11_" fill="#999999" d="M26.84,26.718c0,0,2.975-3.192,4.697-3.124c1.723,0.068,2.998,2.367,3.758,1.746
			c0.761-0.62,1.141-3.147,4.026-0.046c0,0-1.901-0.758-2.505-0.253c-0.604,0.505-1.477,1.884-1.678,1.907
			c-0.201,0.023-1.7-2.091-3.937-1.585C28.965,25.868,26.84,26.718,26.84,26.718z"/>
	</g>
</g>
</svg>
