<?xml version="1.0" encoding="utf-8"?>
<!-- Generator: Adobe Illustrator 16.0.0, SVG Export Plug-In . SVG Version: 6.00 Build 0)  -->
<!DOCTYPE svg PUBLIC "-//W3C//DTD SVG 1.1//EN" "http://www.w3.org/Graphics/SVG/1.1/DTD/svg11.dtd">
<svg version="1.1" id="图层_1" xmlns="http://www.w3.org/2000/svg" xmlns:xlink="http://www.w3.org/1999/xlink" x="0px" y="0px"
	 width="100px" height="25px" viewBox="-1 0 100 25" enable-background="new -1 0 100 25" xml:space="preserve">
<g>
	<path fill="#DE0C7A" d="M39.635,0.302c1.675,0.49,3.862,2.462,5.768,4.735l0,0c1.886,2.293,3.436,4.797,3.469,6.656l0,0
		c0,0.057,0,0.119-0.01,0.177l0,0c-0.361,5.89-4.54,8.698-8.651,11.335l0,0c-0.139,0.086-0.291,0.098-0.434,0.049l0,0
		c-0.002,0-0.002,0-0.004,0l0,0c-0.007-0.004-0.017-0.006-0.021-0.008l0,0c-0.002-0.002-0.007-0.002-0.009-0.004l0,0
		c-0.006-0.002-0.012-0.004-0.017-0.006l0,0c-0.004-0.002-0.008-0.004-0.012-0.006l0,0c-0.008-0.006-0.019-0.008-0.021-0.017l0,0
		c-0.004-0.002-0.01-0.004-0.017-0.008l0,0c-0.002-0.002-0.006-0.004-0.01-0.006l0,0c-0.004-0.009-0.013-0.013-0.017-0.017l0,0
		c-0.004-0.002-0.006-0.004-0.011-0.006l0,0c-0.01-0.006-0.016-0.012-0.021-0.016l0,0l0,0l0,0c-0.011-0.006-0.019-0.012-0.021-0.02
		l0,0c-0.002,0-0.004-0.002-0.004-0.002l0,0c-0.096-0.086-0.153-0.214-0.155-0.354l0,0C39.293,15.948,39.107,6.359,39,0.772l0,0
		c-0.004-0.156,0.063-0.303,0.188-0.399l0,0c0.089-0.068,0.19-0.104,0.304-0.104l0,0C39.549,0.285,39.592,0.29,39.635,0.302
		L39.635,0.302z M47.884,11.797c0.002-0.023,0.005-0.06,0.005-0.104l0,0c0.03-1.298-1.407-3.849-3.236-6.022l0,0
		c-1.526-1.853-3.367-3.502-4.644-4.159l0,0c0.104,5.414,0.27,13.929,0.408,20.382l0,0C44.259,19.389,47.569,16.85,47.884,11.797
		L47.884,11.797z"/>
	<path fill="#DE0C7A" d="M51.342,1.269C56.452,5.13,58.983,8.507,59,11.913l0,0c-0.021,3.621-2.869,6.844-7.889,10.28l0,0
		c-0.021,0.019-0.048,0.031-0.069,0.046l0,0c-0.004,0.002-0.008,0.002-0.016,0.004l0,0c-0.002,0.002-0.004,0.002-0.006,0.004l0,0
		c-0.215,0.096-0.473,0.026-0.604-0.174l0,0c-0.041-0.063-0.064-0.128-0.078-0.195l0,0c0-0.002,0-0.004-0.002-0.006l0,0
		c0-0.002,0-0.006,0-0.011l0,0c-0.002-0.01-0.004-0.021-0.004-0.032l0,0c-0.136-2.029-0.187-3.979-0.188-5.873l0,0
		c0.002-5.122,0.364-9.795,0.403-14.294l0,0c0.002-0.187,0.104-0.357,0.271-0.44l0,0c0.067-0.033,0.145-0.05,0.221-0.05l0,0
		C51.152,1.17,51.257,1.202,51.342,1.269L51.342,1.269z M58.015,11.912c0.017-2.701-1.987-5.718-6.49-9.258l0,0
		c-0.075,4.237-0.389,8.594-0.389,13.301l0,0c0.002,1.602,0.035,3.244,0.129,4.936l0,0C55.758,17.697,58.033,14.787,58.015,11.912
		L58.015,11.912z"/>
</g>
<g>
	<path fill="#E3087B" d="M24.686,3.167L19.517,3c-0.135-0.004-0.27,0.048-0.367,0.144C19.053,3.241,18.998,3.375,19,3.511
		l0.226,18.24c0.004,0.272,0.225,0.336,0.497,0.34l4.996-0.099c0.003,0,0.005,0,0.008,0c0.132,0,0.259,0.104,0.352,0.01
		c0.097-0.095,0.149-0.146,0.147-0.279L25.168,3.632C25.168,3.359,24.954,3.176,24.686,3.167z"/>
	<path fill="#E3087B" d="M34.858,3.492c-0.096-0.096-0.227-0.151-0.355-0.153l-5.335-0.056c-0.135,0-0.264,0.052-0.357,0.147
		c-0.096,0.092-0.148,0.221-0.15,0.357l-0.056,18.352c0,0.139,0.056,0.449,0.155,0.545C28.854,22.771,28.979,23,29.106,23
		c0.01,0,0.019,0,0.028,0l4.999-0.459c0.263-0.02,0.468-0.32,0.474-0.583l0.393-18.059C35,3.764,34.951,3.589,34.858,3.492z"/>
</g>
<path fill="#E3087B" d="M18.996,10.999c-0.038-1.124-1.125-2.086-2.606-3.101C11.918,4.912,2.851,1.52,0.604,0.204L0.24,0h-0.62
	c-0.17,0-0.329,0.164-0.444,0.262C-0.943,0.355-1.005,0.539-1,0.674c0.199,5.294,0.583,12.799,0.583,19.736
	c0,0.357-0.002,0.73-0.002,1.088c0,0.154,0.09,0.309,0.248,0.4C-0.063,21.964,0.066,22,0.197,22c0.06,0,0.119-0.004,0.177-0.02
	c1.362-0.338,5.816-2.311,10.121-4.565c2.14-1.126,4.206-2.313,5.766-3.396c1.542-1.119,2.65-1.996,2.738-3
	C18.998,11.014,18.996,10.999,18.996,10.999z"/>
<g>
	<path fill="#E3087B" d="M70.502,1.371c-0.191-0.53-0.951-0.399-0.99,0.06c-1.92,2.061-3.811,4.16-5.971,5.971
		C63.461,7.46,63.422,7.53,63.4,7.61c-1.25-0.1-2.619-0.469-3.648,0.41c-0.256,0.219-0.422,0.527-0.537,0.879
		c0,0.001,0,0.001,0,0.002c-0.016,2.605-0.15,5.208-0.215,7.812c0.004,0.006,0.006,0.012,0.012,0.018
		c0.979,1.1,3.26,0.67,4.51,0.641c0.059,0,0.109-0.01,0.16-0.031c0.01,0.09,0.039,0.18,0.109,0.26
		c1.689,1.951,3.189,4.051,4.67,6.15c0.35,0.49,1.109,0.09,0.91-0.4C74.461,17.871,72.74,7.741,70.502,1.371z"/>
	<path fill="#E3087B" d="M74.629,6.368c-0.158-0.625-1.123-0.359-0.965,0.266c1.004,3.981,1.264,7.812,0.5,11.859
		c-0.119,0.631,0.844,0.898,0.965,0.266C75.926,14.537,75.676,10.52,74.629,6.368z"/>
	<path fill="#E3087B" d="M77.521,4.417c-0.084-0.629-1.084-0.638-1,0c0.707,5.396,1.824,10.728,0.018,16.035
		c-0.209,0.611,0.758,0.873,0.965,0.266C79.338,15.33,78.238,9.899,77.521,4.417z"/>
</g>
<g>
	<g>
		<path fill="#E3087B" d="M90.521,1.371c-0.19-0.53-0.951-0.399-0.991,0.06c-1.924,2.061-3.817,4.16-5.98,5.971
			c-0.08,0.06-0.12,0.129-0.141,0.209c-1.252-0.1-2.624-0.469-3.655,0.41c-0.256,0.219-0.421,0.527-0.538,0.879
			c0,0.001,0,0.001,0,0.002c-0.015,2.605-0.15,5.208-0.215,7.812c0.005,0.006,0.007,0.012,0.012,0.018
			c0.981,1.1,3.265,0.67,4.518,0.641c0.06,0,0.11-0.01,0.16-0.031c0.01,0.09,0.04,0.18,0.109,0.26
			c1.693,1.951,3.195,4.051,4.679,6.15c0.35,0.49,1.111,0.09,0.91-0.4C94.487,17.871,92.764,7.741,90.521,1.371z"/>
	</g>
	<path fill="#E3087B" d="M98.926,16.373c-0.774-1.302-1.568-2.592-2.371-3.877c0.549-1.274,1.103-2.546,1.546-3.863
		c0.206-0.613-0.762-0.874-0.967-0.266c-0.354,1.057-0.783,2.083-1.221,3.105c-0.704-1.119-1.41-2.235-2.12-3.35
		c-0.346-0.542-1.213-0.041-0.865,0.505c0.841,1.318,1.678,2.636,2.507,3.96c-0.65,1.517-1.276,3.042-1.681,4.654
		c-0.157,0.626,0.809,0.891,0.966,0.266c0.336-1.338,0.827-2.615,1.355-3.879c0.669,1.078,1.338,2.157,1.986,3.248
		C98.391,17.431,99.257,16.929,98.926,16.373z"/>
</g>
</svg>
