<?xml version="1.0" encoding="utf-8"?>
<!-- Generator: Adobe Illustrator 16.0.0, SVG Export Plug-In . SVG Version: 6.00 Build 0)  -->
<!DOCTYPE svg PUBLIC "-//W3C//DTD SVG 1.1//EN" "http://www.w3.org/Graphics/SVG/1.1/DTD/svg11.dtd">
<svg version="1.1" id="图层_1" xmlns="http://www.w3.org/2000/svg" xmlns:xlink="http://www.w3.org/1999/xlink" x="0px" y="0px"
	 width="500px" height="200px" viewBox="0 0 500 200" enable-background="new 0 0 500 200" xml:space="preserve">
<g>
	<g>
		<path fill="#FFFFFF" d="M41.11,192.781c-15.195-24.467-38.725-63.718-39.587-68.808c4.241-6.647,57.345-87.71,63.149-92.949
			l348.694,12.464l83.4,36.848l-29.787,90.582L41.11,192.781z"/>
		<path fill="#518FFE" d="M65.284,32.55l347.741,12.427l81.894,36.182l-29.041,88.313L41.917,191.237
			c-17.82-28.715-36.735-60.768-38.769-67.026C9.881,113.677,58.027,40.438,65.284,32.55 M64.269,29.512
			c-2.999,0.09-62.297,90.906-64.206,93.964c-1.91,3.059,40.24,70.848,40.24,70.848l427.781-21.961l30.533-92.85L413.709,42
			L64.269,29.512L64.269,29.512z"/>
	</g>
	<g>
		<g opacity="0.75">
			<path fill="#F7D6E5" d="M103.542,78.705c4.147,1.664,6.222,5.191,6.222,10.582c0,1.195-0.633,3.105-1.898,5.73h0.457
				c4.125-0.938,6.843-1.406,8.155-1.406c4.827,0.234,7.241,0.703,7.241,1.406v1.934c-0.516,0-1.16,0.328-1.934,0.984h-5.765
				c-4.336,0-8.976,6.398-13.92,19.195c3.094,0,5.647,2.238,7.663,6.715h1.477c2.32-7.688,4.862-11.531,7.627-11.531v-0.457
				c-6.023-4.125-9.057-6.363-9.104-6.715c0.093-0.656,0.41-0.984,0.949-0.984h2.46c2.202,0,5.554,1.922,10.053,5.766
				c2.46,1.477,5.812,2.438,10.053,2.883v1.441l-0.492,2.355h-0.949c-2.812,0-6.491-1.102-11.038-3.305v0.457
				c-4.476,7.992-6.714,12.152-6.714,12.48c6.538,9.234,11.823,14.508,15.854,15.82l4.78-0.914l0.492,0.914v1.02
				c0,0.914-2.402,1.547-7.206,1.898h-0.457c-2.765,0-6.772-3.375-12.021-10.125c-1.921-1.242-2.882-2.508-2.882-3.797
				c-2.531,2.461-6.375,7.746-11.53,15.855c-2.719,1.594-4.476,2.391-5.272,2.391h-0.457l-0.492-2.391
				c5.788-6.281,10.265-12.844,13.428-19.688l-7.663-7.207h-0.492c-1.125,2.859-3.996,7.184-8.612,12.973h-0.527
				c-0.445,0-0.914-0.492-1.406-1.477v-0.457l3.867-9.598h-0.527c-1.148-0.961-3.714-1.758-7.698-2.391
				c-0.938,2.203-1.406,6.516-1.406,12.938v4.781c0,1.359,0.164,3.117,0.492,5.273c-0.469,1.617-1.594,2.426-3.375,2.426
				c-0.633-0.328-1.113-0.492-1.441-0.492v-5.273c0-5.227,0.316-11.625,0.949-19.195c-5.882,8.32-9.245,12.48-10.088,12.48
				l-1.441,0.984h-1.406v-2.426c2.789-2.625,6.468-9.188,11.038-19.688c0.444,0,0.925-0.48,1.441-1.441v-0.492h-6.222l-4.851-0.457
				v-3.867h11.073v-3.305c-0.329-3.539-0.492-7.23-0.492-11.074c0.633-0.328,1.113-0.492,1.441-0.492
				c2.25,0,3.375,3.035,3.375,9.105v4.852h0.457c1.265,0,4.944-0.645,11.037-1.934l0.492,1.934c-0.422,2.25-1.547,3.375-3.375,3.375
				c-5.742,0-8.612,1.91-8.612,5.73c0,1.992,4.147,3.598,12.443,4.816l8.682-17.789h-0.527c-3.984,0.633-8.144,0.949-12.479,0.949
				c-0.304-0.563-0.457-1.207-0.457-1.934c0-1.57,4.64-2.684,13.919-3.34l-0.457-0.949c0-0.516,0.152-2.438,0.457-5.766
				c0-1.57-1.277-3.961-3.831-7.172v-1.934C102.1,79.033,102.58,78.705,103.542,78.705z"/>
			<path fill="#F7D6E5" d="M154.967,84.471h0.949c1.688,0,2.964,8.32,3.831,24.961c1.78,0,11.377-3.68,28.789-11.039h1.441
				l0.492,2.391v0.527l-5.272,4.324l-0.457,0.914c0.609-0.328,1.077-0.492,1.406-0.492c0.633,0.328,1.113,0.492,1.441,0.492v2.883
				l-7.206,18.738h0.984c2.132,0,5.495-0.961,10.088-2.883h0.914c0.679,0,1.019,0.48,1.019,1.441c0,3.281-2.882,5.367-8.647,6.258
				h-3.375c-4.499-0.234-6.749-1.043-6.749-2.426c0-0.703,2.882-8.063,8.647-22.078h-0.457c-6.305,8.742-11.12,17.227-14.447,25.453
				c0,0.305-0.633,0.785-1.898,1.441h-1.406c-0.469,0-0.949-0.48-1.441-1.441c0.422-1.969,4.897-10.301,13.428-24.996v-0.457h-0.984
				c-10.545,3.75-15.818,5.824-15.818,6.223v8.156l0.457,2.883c0,0.328-0.152,0.492-0.457,0.492l1.441,17.297
				c-0.867,0-1.348,0.797-1.441,2.391h-2.425c-0.961,0-1.911-2.402-2.847-7.207c0.937-2.109,1.406-4.348,1.406-6.715v-4.324
				c0-1.148-0.153-2.578-0.457-4.289c0.304-0.539,0.457-1.359,0.457-2.461c0-0.305-0.153-0.457-0.457-0.457l0.457-2.391
				c0-3-1.102-13.875-3.304-32.625C153.561,85.455,154.194,85.127,154.967,84.471z M201.05,73.924h1.406
				c0.633,0,1.265,0.961,1.898,2.883c-0.281,8.883-0.422,16.23-0.422,22.043v15.855c0,0.727-0.164,1.359-0.492,1.898
				c0,0.352,0.164,0.527,0.492,0.527l-0.492,3.34v17.754c0,1.594,0.164,3.996,0.492,7.207l-2.882,2.426
				c-2.789-0.984-7.909-1.945-15.361-2.883c0-0.328-0.164-0.492-0.492-0.492c-6.632,2.25-14.798,4.172-24.5,5.766l-0.457-3.34
				v-0.527c0.305-1.664,4.452-2.613,12.444-2.848h1.476c0.773,0,5.097-1.605,12.971-4.816h0.914c0,0.773,0.809,2.051,2.425,3.832
				c5.109,0,7.663-0.316,7.663-0.949l0.527-3.375c0-0.328-0.176-0.809-0.527-1.441l0.527-2.848v-0.949
				c0-0.727-0.176-1.371-0.527-1.934l0.527-0.984c-0.352-1.734-0.527-3.176-0.527-4.324v-0.457c0-0.328,0.176-0.492,0.527-0.492
				c0-0.328-0.176-0.492-0.527-0.492c0.656-10.242,1.148-16.465,1.476-18.668l-0.949-0.492c0.632-2.438,0.949-4.688,0.949-6.75
				v-16.77c0-1.641-0.316-2.461-0.949-2.461c-10.804,0.727-22.485,3.938-35.045,9.633c-1.617-0.398-2.426-0.867-2.426-1.406
				c0-3.281,6.081-6.023,18.243-8.227C183.698,77.92,190.903,76.174,201.05,73.924z M181.366,93.084
				c1.265,0.492,1.898,0.984,1.898,1.477v1.934c-2.859,0.961-6.386,1.441-10.581,1.441h-6.679c-0.633,0-0.949-0.328-0.949-0.984
				v-2.883L181.366,93.084z"/>
			<path fill="#F7D6E5" d="M251.035,73.924c5.67,0,8.869,2.086,9.596,6.258c6.631-1.922,11.271-2.883,13.92-2.883v0.457
				c0,3.188-1.922,4.781-5.764,4.781h-0.984l0.492,1.934c-0.492,3.375-4.488,9.293-11.988,17.754v0.492
				c9.984-2.883,17.189-4.324,21.619-4.324c0.773,0,3.164,0.328,7.17,0.984c0,0.938-0.316,2.215-0.949,3.832l-7.697-0.984
				l-39.827,9.633c-3.983,0.633-7.183,0.949-9.596,0.949v-1.934c0-0.961,7.358-3.047,22.075-6.258c0-5.367,0.48-10.641,1.441-15.82
				c-8.928,2.555-14.846,3.832-17.751,3.832h-1.441c-0.469,0-0.961-0.469-1.477-1.406v-2.426c2.835-0.328,4.605-0.492,5.308-0.492
				l0.984,0.492c10.522-2.813,15.783-5.203,15.783-7.172h1.02c2.271,0.305,3.537,0.457,3.795,0.457l0.492-0.984l-7.17-4.289v-0.492
				C250.156,74.721,250.473,73.924,251.035,73.924z M271.176,112.807c2.297,0,3.574,0.797,3.832,2.391
				c-1.594,14.063-2.391,23.66-2.391,28.793c-0.656,1.594-1.137,2.391-1.441,2.391l0.457,2.391v0.984
				c-8.061,1.617-15.42,2.742-22.074,3.375l-3.339-23.063l0.492-0.949c-0.961-3.469-1.605-7.301-1.934-11.496
				c0.773-1.945,1.734-2.918,2.883-2.918c0.632,0.328,1.113,0.492,1.441,0.492v4.324
				C260.795,115.045,268.154,112.807,271.176,112.807z M251.949,124.795l-1.863-0.949l1.406,8.648c3.867,0,9.783-0.961,17.75-2.883
				v-12.48h-0.455c-10.547,2.484-15.818,4.875-15.818,7.172L251.949,124.795z M252.969,137.311c0,0.328,0.141,0.797,0.422,1.406
				c-0.281,1.758-0.422,3.035-0.422,3.832c0.281,2.836,0.422,4.605,0.422,5.309h7.24c1.594,0,3.984-0.164,7.172-0.492
				c-0.633-1.055-0.949-2.016-0.949-2.883c0.633-2.883,0.949-4.969,0.949-6.258v-3.375h-0.949
				C264.791,134.85,260.162,135.67,252.969,137.311z M253.391,99.834h1.018c6.352-9.07,9.527-14.344,9.527-15.82v-0.492
				c-5.602,0-8.777,3.363-9.527,10.09C253.729,97.455,253.391,99.529,253.391,99.834z"/>
			<path fill="#F7D6E5" d="M308.928,128.17h3.34c1.922,4.031,2.883,6.738,2.883,8.121v1.02c-0.727,0-1.688,0.469-2.883,1.406h-0.492
				c-1.125,0-2.227-2.719-3.305-8.156c-0.352,0-0.525-0.164-0.525-0.492v-0.949C308.061,128.486,308.389,128.17,308.928,128.17z
				 M341.092,79.162v2.918c0,1.359-9.443,4.559-28.332,9.598c-1.992-0.633-3.117-1.43-3.375-2.391c0-0.891,0.316-1.852,0.949-2.883
				l5.766,0.457C316.779,86.861,325.109,84.295,341.092,79.162z M322.32,92.17h1.934v0.457c0,5.156-2.555,13.148-7.662,23.977
				c9.396-2.133,14.68-4.043,15.854-5.73l-0.492-2.883c0.328-1.734,0.492-3.164,0.492-4.289c0-0.328-0.164-0.82-0.492-1.477
				l0.492-1.934v-5.73c0.563-0.328,1.207-0.492,1.932-0.492c0.398,0,1.195,0.809,2.391,2.426v13.887l14.869-4.324h0.457l2.426,0.492
				v1.441c0,2.578-1.277,3.867-3.832,3.867c-0.727,0-1.371-0.164-1.934-0.492c-6.959,1.688-10.955,3.434-11.986,5.238
				c0.305,0.633,0.609,2.25,0.914,4.852c-0.305,6.516-0.938,13.875-1.898,22.078h-0.949c-7.686-2.063-11.529-3.832-11.529-5.309
				v-0.457h8.648v-7.207c0.188-4.43,0.668-6.82,1.441-7.172c-0.963-3.492-1.441-5.895-1.441-7.207
				c-9.188,3.82-15.748,5.73-19.686,5.73l-1.441-2.391c0-0.469,2.73-6.715,8.191-18.738C319.018,96.893,320.119,94.021,322.32,92.17
				z M353.57,128.627h1.898c1.195,0.727,2.32,2.016,3.375,3.867v2.883c0,0.422-0.492,0.891-1.477,1.406h-0.457
				c-3.211-2.625-4.816-5.016-4.816-7.172L353.57,128.627z"/>
			<path fill="#F7D6E5" d="M410.234,86.404c0.633,0.117,0.949,0.445,0.949,0.984c0,8.016-1.922,16.652-5.766,25.91
				c2.344,0,9.701,6.07,22.074,18.211h1.934v1.934c0,2.227-1.113,3.34-3.34,3.34c-10.1-10.5-17.305-17.051-21.617-19.652
				c-0.492,0.141-2.895,5.098-7.205,14.871c-1.898,3.188-3.492,4.781-4.781,4.781l-0.492-0.949v-0.984l12.479-30.691l3.375-17.297
				L410.234,86.404z"/>
		</g>
		<g>
			<g>
				<path fill="#518FFE" d="M106.542,76.705c4.147,1.664,6.222,5.191,6.222,10.582c0,1.195-0.633,3.105-1.898,5.73h0.457
					c4.125-0.938,6.843-1.406,8.155-1.406c4.827,0.234,7.241,0.703,7.241,1.406v1.934c-0.516,0-1.16,0.328-1.934,0.984h-5.765
					c-4.336,0-8.976,6.398-13.92,19.195c3.094,0,5.647,2.238,7.663,6.715h1.477c2.32-7.688,4.862-11.531,7.627-11.531v-0.457
					c-6.023-4.125-9.057-6.363-9.104-6.715c0.093-0.656,0.41-0.984,0.949-0.984h2.46c2.202,0,5.554,1.922,10.053,5.766
					c2.46,1.477,5.812,2.438,10.053,2.883v1.441l-0.492,2.355h-0.949c-2.812,0-6.491-1.102-11.038-3.305v0.457
					c-4.476,7.992-6.714,12.152-6.714,12.48c6.538,9.234,11.823,14.508,15.854,15.82l4.78-0.914l0.492,0.914v1.02
					c0,0.914-2.402,1.547-7.206,1.898h-0.457c-2.765,0-6.772-3.375-12.021-10.125c-1.921-1.242-2.882-2.508-2.882-3.797
					c-2.531,2.461-6.375,7.746-11.53,15.855c-2.719,1.594-4.476,2.391-5.272,2.391h-0.457l-0.492-2.391
					c5.788-6.281,10.265-12.844,13.428-19.688l-7.663-7.207h-0.492c-1.125,2.859-3.996,7.184-8.612,12.973h-0.527
					c-0.445,0-0.914-0.492-1.406-1.477v-0.457l3.867-9.598h-0.527c-1.148-0.961-3.714-1.758-7.698-2.391
					c-0.938,2.203-1.406,6.516-1.406,12.938v4.781c0,1.359,0.164,3.117,0.492,5.273c-0.469,1.617-1.594,2.426-3.375,2.426
					c-0.633-0.328-1.113-0.492-1.441-0.492v-5.273c0-5.227,0.316-11.625,0.949-19.195c-5.882,8.32-9.245,12.48-10.088,12.48
					l-1.441,0.984h-1.406v-2.426c2.789-2.625,6.468-9.188,11.038-19.688c0.444,0,0.925-0.48,1.441-1.441v-0.492h-6.222l-4.851-0.457
					v-3.867h11.073v-3.305c-0.329-3.539-0.492-7.23-0.492-11.074c0.633-0.328,1.113-0.492,1.441-0.492
					c2.25,0,3.375,3.035,3.375,9.105v4.852h0.457c1.265,0,4.944-0.645,11.037-1.934l0.492,1.934
					c-0.422,2.25-1.547,3.375-3.375,3.375c-5.742,0-8.612,1.91-8.612,5.73c0,1.992,4.147,3.598,12.443,4.816l8.682-17.789h-0.527
					c-3.984,0.633-8.144,0.949-12.479,0.949c-0.304-0.563-0.457-1.207-0.457-1.934c0-1.57,4.64-2.684,13.919-3.34l-0.457-0.949
					c0-0.516,0.152-2.438,0.457-5.766c0-1.57-1.277-3.961-3.831-7.172v-1.934C105.1,77.033,105.58,76.705,106.542,76.705z"/>
				<path fill="#518FFE" d="M157.967,82.471h0.949c1.688,0,2.964,8.32,3.831,24.961c1.78,0,11.377-3.68,28.789-11.039h1.441
					l0.492,2.391v0.527l-5.272,4.324l-0.457,0.914c0.609-0.328,1.077-0.492,1.406-0.492c0.633,0.328,1.113,0.492,1.441,0.492v2.883
					l-7.206,18.738h0.984c2.132,0,5.495-0.961,10.088-2.883h0.914c0.679,0,1.019,0.48,1.019,1.441c0,3.281-2.882,5.367-8.647,6.258
					h-3.375c-4.499-0.234-6.749-1.043-6.749-2.426c0-0.703,2.882-8.063,8.647-22.078h-0.457
					c-6.305,8.742-11.12,17.227-14.447,25.453c0,0.305-0.633,0.785-1.898,1.441h-1.406c-0.469,0-0.949-0.48-1.441-1.441
					c0.422-1.969,4.897-10.301,13.428-24.996v-0.457h-0.984c-10.545,3.75-15.818,5.824-15.818,6.223v8.156l0.457,2.883
					c0,0.328-0.152,0.492-0.457,0.492l1.441,17.297c-0.867,0-1.348,0.797-1.441,2.391h-2.425c-0.961,0-1.911-2.402-2.847-7.207
					c0.937-2.109,1.406-4.348,1.406-6.715v-4.324c0-1.148-0.153-2.578-0.457-4.289c0.304-0.539,0.457-1.359,0.457-2.461
					c0-0.305-0.153-0.457-0.457-0.457l0.457-2.391c0-3-1.102-13.875-3.304-32.625C156.561,83.455,157.194,83.127,157.967,82.471z
					 M204.05,71.924h1.406c0.633,0,1.265,0.961,1.898,2.883c-0.281,8.883-0.422,16.23-0.422,22.043v15.855
					c0,0.727-0.164,1.359-0.492,1.898c0,0.352,0.164,0.527,0.492,0.527l-0.492,3.34v17.754c0,1.594,0.164,3.996,0.492,7.207
					l-2.882,2.426c-2.789-0.984-7.909-1.945-15.361-2.883c0-0.328-0.164-0.492-0.492-0.492c-6.632,2.25-14.798,4.172-24.5,5.766
					l-0.457-3.34v-0.527c0.305-1.664,4.452-2.613,12.444-2.848h1.476c0.773,0,5.097-1.605,12.971-4.816h0.914
					c0,0.773,0.809,2.051,2.425,3.832c5.109,0,7.663-0.316,7.663-0.949l0.527-3.375c0-0.328-0.176-0.809-0.527-1.441l0.527-2.848
					v-0.949c0-0.727-0.176-1.371-0.527-1.934l0.527-0.984c-0.352-1.734-0.527-3.176-0.527-4.324v-0.457
					c0-0.328,0.176-0.492,0.527-0.492c0-0.328-0.176-0.492-0.527-0.492c0.656-10.242,1.148-16.465,1.476-18.668l-0.949-0.492
					c0.632-2.438,0.949-4.688,0.949-6.75v-16.77c0-1.641-0.316-2.461-0.949-2.461c-10.804,0.727-22.485,3.938-35.045,9.633
					c-1.617-0.398-2.426-0.867-2.426-1.406c0-3.281,6.081-6.023,18.243-8.227C186.698,75.92,193.903,74.174,204.05,71.924z
					 M184.366,91.084c1.265,0.492,1.898,0.984,1.898,1.477v1.934c-2.859,0.961-6.386,1.441-10.581,1.441h-6.679
					c-0.633,0-0.949-0.328-0.949-0.984v-2.883L184.366,91.084z"/>
				<path fill="#518FFE" d="M254.035,71.924c5.67,0,8.869,2.086,9.596,6.258c6.631-1.922,11.271-2.883,13.92-2.883v0.457
					c0,3.188-1.922,4.781-5.764,4.781h-0.984l0.492,1.934c-0.492,3.375-4.488,9.293-11.988,17.754v0.492
					c9.984-2.883,17.189-4.324,21.619-4.324c0.773,0,3.164,0.328,7.17,0.984c0,0.938-0.316,2.215-0.949,3.832l-7.697-0.984
					l-39.827,9.633c-3.983,0.633-7.183,0.949-9.596,0.949v-1.934c0-0.961,7.358-3.047,22.075-6.258c0-5.367,0.48-10.641,1.441-15.82
					c-8.928,2.555-14.846,3.832-17.751,3.832h-1.441c-0.469,0-0.961-0.469-1.477-1.406v-2.426c2.835-0.328,4.605-0.492,5.308-0.492
					l0.984,0.492c10.522-2.813,15.783-5.203,15.783-7.172h1.02c2.271,0.305,3.537,0.457,3.795,0.457l0.492-0.984l-7.17-4.289v-0.492
					C253.156,72.721,253.473,71.924,254.035,71.924z M274.176,110.807c2.297,0,3.574,0.797,3.832,2.391
					c-1.594,14.063-2.391,23.66-2.391,28.793c-0.656,1.594-1.137,2.391-1.441,2.391l0.457,2.391v0.984
					c-8.061,1.617-15.42,2.742-22.074,3.375l-3.339-23.063l0.492-0.949c-0.961-3.469-1.605-7.301-1.934-11.496
					c0.773-1.945,1.734-2.918,2.883-2.918c0.632,0.328,1.113,0.492,1.441,0.492v4.324
					C263.795,113.045,271.154,110.807,274.176,110.807z M254.949,122.795l-1.863-0.949l1.406,8.648c3.867,0,9.783-0.961,17.75-2.883
					v-12.48h-0.455c-10.547,2.484-15.818,4.875-15.818,7.172L254.949,122.795z M255.969,135.311c0,0.328,0.141,0.797,0.422,1.406
					c-0.281,1.758-0.422,3.035-0.422,3.832c0.281,2.836,0.422,4.605,0.422,5.309h7.24c1.594,0,3.984-0.164,7.172-0.492
					c-0.633-1.055-0.949-2.016-0.949-2.883c0.633-2.883,0.949-4.969,0.949-6.258v-3.375h-0.949
					C267.791,132.85,263.162,133.67,255.969,135.311z M256.391,97.834h1.018c6.352-9.07,9.527-14.344,9.527-15.82v-0.492
					c-5.602,0-8.777,3.363-9.527,10.09C256.729,95.455,256.391,97.529,256.391,97.834z"/>
				<path fill="#518FFE" d="M311.928,126.17h3.34c1.922,4.031,2.883,6.738,2.883,8.121v1.02c-0.727,0-1.688,0.469-2.883,1.406
					h-0.492c-1.125,0-2.227-2.719-3.305-8.156c-0.352,0-0.525-0.164-0.525-0.492v-0.949
					C311.061,126.486,311.389,126.17,311.928,126.17z M344.092,77.162v2.918c0,1.359-9.443,4.559-28.332,9.598
					c-1.992-0.633-3.117-1.43-3.375-2.391c0-0.891,0.316-1.852,0.949-2.883l5.766,0.457
					C319.779,84.861,328.109,82.295,344.092,77.162z M325.32,90.17h1.934v0.457c0,5.156-2.555,13.148-7.662,23.977
					c9.396-2.133,14.68-4.043,15.854-5.73l-0.492-2.883c0.328-1.734,0.492-3.164,0.492-4.289c0-0.328-0.164-0.82-0.492-1.477
					l0.492-1.934v-5.73c0.563-0.328,1.207-0.492,1.932-0.492c0.398,0,1.195,0.809,2.391,2.426v13.887l14.869-4.324h0.457
					l2.426,0.492v1.441c0,2.578-1.277,3.867-3.832,3.867c-0.727,0-1.371-0.164-1.934-0.492c-6.959,1.688-10.955,3.434-11.986,5.238
					c0.305,0.633,0.609,2.25,0.914,4.852c-0.305,6.516-0.938,13.875-1.898,22.078h-0.949c-7.686-2.063-11.529-3.832-11.529-5.309
					v-0.457h8.648v-7.207c0.188-4.43,0.668-6.82,1.441-7.172c-0.963-3.492-1.441-5.895-1.441-7.207
					c-9.188,3.82-15.748,5.73-19.686,5.73l-1.441-2.391c0-0.469,2.73-6.715,8.191-18.738
					C322.018,94.893,323.119,92.021,325.32,90.17z M356.57,126.627h1.898c1.195,0.727,2.32,2.016,3.375,3.867v2.883
					c0,0.422-0.492,0.891-1.477,1.406h-0.457c-3.211-2.625-4.816-5.016-4.816-7.172L356.57,126.627z"/>
				<path fill="#518FFE" d="M413.234,84.404c0.633,0.117,0.949,0.445,0.949,0.984c0,8.016-1.922,16.652-5.766,25.91
					c2.344,0,9.701,6.07,22.074,18.211h1.934v1.934c0,2.227-1.113,3.34-3.34,3.34c-10.1-10.5-17.305-17.051-21.617-19.652
					c-0.492,0.141-2.895,5.098-7.205,14.871c-1.898,3.188-3.492,4.781-4.781,4.781l-0.492-0.949v-0.984l12.479-30.691l3.375-17.297
					L413.234,84.404z"/>
			</g>
		</g>
	</g>
	<polygon fill="#518FFE" points="383.684,29.333 404.697,52 493.803,53.706 500,6 411.68,6 	"/>
	<g>
		
			<path fill="#FFFFFF" stroke="#FFFFFF" stroke-width="0.5" stroke-linecap="round" stroke-linejoin="round" stroke-miterlimit="10" d="
			M423.377,14.229h0.316c0.539,0.242,0.809,0.773,0.809,1.594v1.125h0.469c0.695,0,1.762-0.051,3.199-0.152l0.164,0.797v0.152
			c0,0.344-1.277,0.609-3.832,0.797v0.809c2.602,0.742,4.09,1.113,4.463,1.113v0.48l-0.152,0.809c-0.756,0-2.193-0.32-4.311-0.961
			l-0.164,0.797v1.277c0.32,0.414,0.48,0.895,0.48,1.441c-0.164,0-0.324,0.211-0.48,0.633c1.281-0.633,2.398-0.949,3.352-0.949
			l0.176,0.316v0.152c0,1.148-1.07,2.859-3.211,5.133h-0.961v0.961c0,0.211-0.105,0.316-0.316,0.316l0.152,0.328v0.152
			c0,0.109-0.051,0.164-0.152,0.164l0.316,0.949c1.805-0.82,4.684-1.617,8.635-2.391l0.164,0.645
			c-0.211,4.766-0.422,7.645-0.633,8.637c0.102,0.18,0.152,0.391,0.152,0.633v0.492c0,0.148-0.32,0.414-0.961,0.797h-0.152
			c-0.633,0-2.607-0.641-5.928-1.922v-0.973h0.176c1.633,0.648,3.387,0.973,5.26,0.973c0-0.109,0.055-0.273,0.164-0.492
			c0.109-2.773,0.164-4.957,0.164-6.551v-0.164c-1.141,0-3.428,0.535-6.865,1.605v7.523c0,0.57-0.215,0.938-0.645,1.102h-0.176
			l-0.797-0.633c0.109-1.758,0.164-3.09,0.164-3.996V35.51h-0.164c-0.648,0.625-2.035,2.387-4.16,5.285
			c-0.555,0-0.875-0.164-0.961-0.492v-0.469c1.289-1.719,2.359-3.215,3.211-4.488h-0.164c-1.328,0.43-2.766,0.699-4.313,0.809
			v-0.961c1.445-1.773,2.508-3.215,3.188-4.324c-0.43,0-0.645-0.105-0.645-0.316v-0.961c1.148,0,2.324-0.43,3.527-1.289v-0.949
			c-1.945,0.633-3.438,0.949-4.477,0.949c0-0.516-0.324-1.043-0.973-1.582c0.141-1.711,0.301-2.566,0.48-2.566
			c0-0.109-0.051-0.164-0.152-0.164c0.148-2.063,0.254-3.129,0.316-3.199l-0.164-0.973v-1.277c0.047-0.203,0.16-0.305,0.34-0.305
			h0.949c0,0.523,0.105,0.785,0.316,0.785c2.984-0.609,4.477-1.035,4.477-1.277v-0.152c0-0.789-0.156-1.859-0.469-3.211
			L423.377,14.229z M422.58,22.385c0,0.758-1.441,1.398-4.324,1.922v2.555c1.172-0.203,3.043-0.73,5.613-1.582
			c-0.648-0.484-0.973-0.969-0.973-1.453v-0.645l0.152-0.797H422.58z M418.408,21.424v1.113h0.809c0.641,0,1.762-0.422,3.363-1.266
			c0.203,0.102,0.359,0.152,0.469,0.152v-0.633c0-0.578-0.211-0.953-0.633-1.125h-0.164
			C420.713,19.667,419.432,20.252,418.408,21.424z M418.572,34.069h0.164c0.82,0,1.941-0.266,3.363-0.797v-2.895
			C420.982,30.956,419.807,32.186,418.572,34.069z M423.377,27.823v0.164h0.152c1.18-0.242,1.77-0.879,1.77-1.91
			C424.018,26.358,423.377,26.94,423.377,27.823z"/>
		
			<path fill="#FFFFFF" stroke="#FFFFFF" stroke-width="0.5" stroke-linecap="round" stroke-linejoin="round" stroke-miterlimit="10" d="
			M457.719,32.463v0.645c0,0.852-0.48,1.277-1.441,1.277h-3.514c-0.438,0-1.023-0.051-1.758-0.152c0,0.234-2.828,0.395-8.484,0.48
			c-0.211-0.258-0.316-0.473-0.316-0.645c0.148-0.438,0.414-0.758,0.797-0.961c1.547,0,5.227-0.105,11.039-0.316
			c0,0.102,0.055,0.152,0.164,0.152c0.031-0.203,0.135-0.305,0.316-0.305H455v0.305C456,32.624,456.906,32.463,457.719,32.463z
			 M449.084,22.538c1.945,0.859,3.172,1.289,3.68,1.289h0.164v0.961c0,0.242-0.531,0.508-1.594,0.797
			c-0.063-0.313-0.762-0.789-2.098-1.43c-0.203,0.102-0.359,0.152-0.469,0.152c-0.234-0.016-0.555-0.336-0.961-0.961
			C448.072,22.807,448.498,22.538,449.084,22.538z"/>
		
			<path fill="#FFFFFF" stroke="#FFFFFF" stroke-width="0.5" stroke-linecap="round" stroke-linejoin="round" stroke-miterlimit="10" d="
			M472.049,19.667h0.176v3.199l-0.176,0.961c0.117,0.188,0.176,0.398,0.176,0.633c-0.359,1.711-0.68,2.566-0.961,2.566h-0.316
			l-0.645-0.469c-1.813,0.727-2.717,1.633-2.717,2.719c-0.234,0-0.395,0.48-0.48,1.441c3.1-1.5,4.912-2.25,5.436-2.25
			c0.219,0.656,0.328,1.082,0.328,1.277c-0.32,1.68-0.641,5.363-0.961,11.051l-0.809,0.633h-0.152
			c-3.35-0.906-5.326-1.863-5.928-2.871c0.039-0.219,0.145-0.328,0.316-0.328c0.297,0,2.008,0.535,5.131,1.605
			c0.336,0,0.547-2.988,0.633-8.965v-0.316h-0.152c-0.617,0-2.43,0.852-5.436,2.555h-0.176c-0.211,0-0.316-0.105-0.316-0.316v-0.152
			c1.063-3.172,1.594-4.883,1.594-5.133c-0.422,0-0.633-0.102-0.633-0.305v-0.48c0.156-0.305,1.652-0.844,4.486-1.617l0.152-0.797
			c0-0.211-0.051-0.316-0.152-0.316l0.152-1.125v-1.594c-0.273,0-1.82,0.16-4.639,0.48l-0.152-0.328v-0.48
			C465.828,20.225,467.902,19.799,472.049,19.667z M483.426,15.67c0.211,0.344,0.316,0.609,0.316,0.797l-4.65,6.879
			c2.521-1.383,4.232-2.074,5.131-2.074c0,0.156,0.105,0.371,0.316,0.645v0.152c0,1.977-0.266,4.27-0.797,6.879l0.152,0.797
			c-0.25,0.648-0.461,0.973-0.633,0.973h-0.645v-0.48c-0.906,0-1.543,0.371-1.908,1.113c0.109,0.758,0.164,1.398,0.164,1.922
			c1.92-0.422,3.463-0.848,4.627-1.277h0.492c0.141,0,0.297,0.156,0.469,0.469v0.328c0,0.641-1.813,1.121-5.438,1.441l-0.15,0.797
			v2.402c0,0.438,0.051,1.027,0.15,1.77c-0.428,1.086-0.643,1.719-0.643,1.898h-0.316c-0.289,0-0.613-0.102-0.973-0.305
			c0.227-1.273,0.34-3.035,0.34-5.285v-0.48h-0.176c-3.531,0.852-5.559,1.277-6.082,1.277v-0.152
			c-0.102-0.188-0.152-0.402-0.152-0.645c1.688-0.75,3.824-1.445,6.41-2.086v-1.91c-1.195,0.07-2.371,0.707-3.527,1.91h-0.469
			c-0.164,0-0.328-0.211-0.492-0.633c0.102-0.945,0.152-1.535,0.152-1.77c-0.102-2.109-0.363-4.828-0.785-8.156l0.305-0.152h0.82
			c0.422,1.102,0.633,1.844,0.633,2.227c1.031,0,1.828-0.801,2.391-2.402c-0.617,0-1.148-2.078-1.594-6.234h0.961
			c0.563,0,0.938,1.547,1.125,4.641c-0.109,0.219-0.164,0.379-0.164,0.48c0.258-0.156,1.535-2.023,3.83-5.602L483.426,15.67z
			 M476.221,27.026c0.109,0.211,0.164,0.371,0.164,0.48c1.516-0.43,2.371-0.645,2.566-0.645v-1.758h-0.164
			c-1.102,0.555-1.957,1.141-2.566,1.758V27.026z M476.385,28.795v1.922c1.773-0.227,2.789-0.496,3.047-0.809
			c0-0.141-0.113-0.727-0.34-1.758C477.459,28.581,476.557,28.795,476.385,28.795z M480.229,24.155
			c0.102,0.695,0.152,1.387,0.152,2.074c0.258-0.102,0.787-0.207,1.592-0.316c0.211,0.109,0.375,0.164,0.492,0.164v0.645
			c0,0.336-0.586,0.598-1.756,0.785v1.922h0.467c1.07,0,1.605-1.016,1.605-3.047v-3.516L480.229,24.155z"/>
	</g>
</g>
</svg>
