<?xml version="1.0" encoding="utf-8"?>
<!-- Generator: Adobe Illustrator 16.0.0, SVG Export Plug-In . SVG Version: 6.00 Build 0)  -->
<!DOCTYPE svg PUBLIC "-//W3C//DTD SVG 1.1//EN" "http://www.w3.org/Graphics/SVG/1.1/DTD/svg11.dtd">
<svg version="1.1" id="图层_1" xmlns="http://www.w3.org/2000/svg" xmlns:xlink="http://www.w3.org/1999/xlink" x="0px" y="0px"
	 width="1920px" height="1080px" viewBox="0 0 1920 1080" enable-background="new 0 0 1920 1080" xml:space="preserve">
<g>
	<g>
		<polygon fill="#E8F5FD" points="975.122,0 935.111,0 0,935.11 0,975.122 		"/>
		<polygon fill="#E8F5FD" points="720.76,0 680.75,0 0,680.75 0,720.761 		"/>
		<polygon fill="#E8F5FD" points="847.942,0 807.93,0 0,807.931 0,847.942 		"/>
		<polygon fill="#E8F5FD" points="1229.481,0 1189.469,0 109.47,1080 149.481,1080 		"/>
		<polygon fill="#E8F5FD" points="1356.662,0 1316.649,0 236.649,1080 276.661,1080 		"/>
		<polygon fill="#E8F5FD" points="1483.841,0 1443.828,0 363.829,1080 403.841,1080 		"/>
		<polygon fill="#E8F5FD" points="212.042,0 172.031,0 0,172.031 0,212.042 		"/>
		<polygon fill="#E8F5FD" points="1062.29,0 0,1062.29 0,1080 22.303,1080 1102.303,0 		"/>
		<polygon fill="#E8F5FD" points="466.402,0 426.391,0 0,426.391 0,466.402 		"/>
		<polygon fill="#E8F5FD" points="0,44.85 0,84.862 84.862,0 44.85,0 		"/>
		<polygon fill="#E8F5FD" points="593.582,0 553.569,0 0,553.569 0,593.582 		"/>
		<polygon fill="#E8F5FD" points="339.223,0 299.21,0 0,299.21 0,339.223 		"/>
		<polygon fill="#E8F5FD" points="1920,708.46 1920,668.449 1508.449,1080 1548.46,1080 		"/>
		<polygon fill="#E8F5FD" points="1611.02,0 1571.009,0 491.009,1080 531.021,1080 		"/>
		<polygon fill="#E8F5FD" points="1920,835.641 1920,795.628 1635.628,1080 1675.641,1080 		"/>
		<polygon fill="#E8F5FD" points="1920,454.1 1920,414.088 1254.088,1080 1294.101,1080 		"/>
		<polygon fill="#E8F5FD" points="1920,1049.987 1889.987,1080 1920,1080 		"/>
		<polygon fill="#E8F5FD" points="1920,962.82 1920,922.809 1762.809,1080 1802.82,1080 		"/>
		<polygon fill="#E8F5FD" points="1920,581.281 1920,541.269 1381.269,1080 1421.281,1080 		"/>
		<polygon fill="#E8F5FD" points="1738.201,0 1698.189,0 618.189,1080 658.201,1080 		"/>
		<polygon fill="#E8F5FD" points="1865.38,0 1825.369,0 745.37,1080 785.381,1080 		"/>
		<polygon fill="#E8F5FD" points="1920,326.92 1920,286.91 1126.909,1080 1166.92,1080 		"/>
		<polygon fill="#E8F5FD" points="1920,199.74 1920,159.729 999.729,1080 1039.741,1080 		"/>
		<polygon fill="#E8F5FD" points="1920,72.561 1920,32.548 872.549,1080 912.561,1080 		"/>
	</g>
</g>
<g>
	<polygon fill="#FDE3FE" points="916.533,0 876.521,0 0,876.521 0,916.534 	"/>
	<polygon fill="#FDE3FE" points="1425.253,0 1385.241,0 305.241,1080 345.253,1080 	"/>
	<polygon fill="#FDE3FE" points="789.353,0 749.342,0 0,749.342 0,789.353 	"/>
	<polygon fill="#FDE3FE" points="1170.893,0 1130.881,0 50.881,1080 90.893,1080 	"/>
	<polygon fill="#FDE3FE" points="1298.071,0 1258.062,0 178.062,1080 218.073,1080 	"/>
	<polygon fill="#FDE3FE" points="662.172,0 622.162,0 0,622.163 0,662.173 	"/>
	<polygon fill="#FDE3FE" points="1043.714,0 1003.701,0 0,1003.701 0,1043.713 	"/>
	<polygon fill="#FDE3FE" points="153.453,0 113.441,0 0,113.441 0,153.453 	"/>
	<polygon fill="#FDE3FE" points="0,26.273 26.273,0 0,0 	"/>
	<polygon fill="#FDE3FE" points="534.993,0 494.982,0 0,494.982 0,534.993 	"/>
	<polygon fill="#FDE3FE" points="407.813,0 367.801,0 0,367.801 0,407.813 	"/>
	<polygon fill="#FDE3FE" points="280.633,0 240.621,0 0,240.621 0,280.633 	"/>
	<polygon fill="#FDE3FE" points="1920,1031.411 1920,991.399 1831.399,1080 1871.411,1080 	"/>
	<polygon fill="#FDE3FE" points="1920,649.871 1920,609.86 1449.86,1080 1489.871,1080 	"/>
	<polygon fill="#FDE3FE" points="1920,522.692 1920,482.68 1322.681,1080 1362.692,1080 	"/>
	<polygon fill="#FDE3FE" points="1920,777.053 1920,737.04 1577.041,1080 1617.053,1080 	"/>
	<polygon fill="#FDE3FE" points="1552.432,0 1512.422,0 432.421,1080 472.432,1080 	"/>
	<polygon fill="#FDE3FE" points="1920,904.231 1920,864.221 1704.221,1080 1744.231,1080 	"/>
	<polygon fill="#FDE3FE" points="1920,395.514 1920,355.501 1195.501,1080 1235.513,1080 	"/>
	<polygon fill="#FDE3FE" points="1679.612,0 1639.602,0 559.602,1080 599.612,1080 	"/>
	<polygon fill="#FDE3FE" points="1806.793,0 1766.781,0 686.781,1080 726.793,1080 	"/>
	<polygon fill="#FDE3FE" points="1920,141.152 1920,101.14 941.141,1080 981.152,1080 	"/>
	<polygon fill="#FDE3FE" points="1920,268.331 1920,228.319 1068.32,1080 1108.332,1080 	"/>
	<polygon fill="#FDE3FE" points="1920,13.972 1920,0 1893.96,0 813.96,1080 853.973,1080 	"/>
</g>
</svg>
