<?xml version="1.0" encoding="utf-8"?>
<!-- Generator: Adobe Illustrator 16.0.0, SVG Export Plug-In . SVG Version: 6.00 Build 0)  -->
<!DOCTYPE svg PUBLIC "-//W3C//DTD SVG 1.1//EN" "http://www.w3.org/Graphics/SVG/1.1/DTD/svg11.dtd">
<svg version="1.1" id="图层_1" xmlns="http://www.w3.org/2000/svg" xmlns:xlink="http://www.w3.org/1999/xlink" x="0px" y="0px"
	 width="300px" height="360px" viewBox="0 0 300 360" enable-background="new 0 0 300 360" xml:space="preserve">
<path fill="#00994C" d="M292.952,3l4.014,354H17.168L3.122,3H292.5 M295.918,0H0l14.285,360H300L295.918,0L295.918,0z"/>
<g>
	<g>
		<g>
			<g>
				<defs>
					<polygon id="SVGID_1_" points="276,275 33,275 23,25 273,25 					"/>
				</defs>
				<clipPath id="SVGID_2_">
					<use xlink:href="#SVGID_1_"  overflow="visible"/>
				</clipPath>
				<g transform="matrix(1 0 0 1 -2.245431e-006 5.965612e-007)" clip-path="url(#SVGID_2_)">
					
						<image overflow="visible" enable-background="new    " width="1000" height="763" xlink:href="1F86448B.jpeg"  transform="matrix(0.3503 0 0 0.3503 -60.4023 16.3765)">
					</image>
				</g>
			</g>
		</g>
	</g>
</g>
<rect x="90.477" y="296.25" fill="none" width="186" height="46.5"/>
<g enable-background="new    ">
	<path fill="#00994C" d="M211.631,295.768c0.633,0,1.113,0.315,1.441,0.948c-1.605,3.738-2.408,6.299-2.408,7.684h0.246
		c0.246,0,0.563,0.32,0.949,0.967v0.949c-0.518,0-1.799,0.961-3.852,2.883c-1.65,0-3.246,2.318-4.779,6.961
		c5.766-4.488,9.205-6.732,10.316-6.732c0.646,0.328,0.967,0.814,0.967,1.459c-0.961,1.807-1.439,2.843-1.439,3.111
		c0.293,0.164,0.533,0.246,0.721,0.246c1.746-0.246,2.619-0.568,2.619-0.967v-7.189c0-1.512-0.234-3.27-0.703-5.271l1.195-0.723
		h0.475c0.809,0.398,1.213,1.037,1.213,1.916v3.604l-0.246,1.424l0.246,0.475c-0.164,1.371-0.246,2.42-0.246,3.146
		c0.094,1.439,0.334,2.162,0.721,2.162h0.229c1.595-0.855,4.318-5.9,8.174-15.137c0.281-0.164,0.604-0.246,0.968-0.246h0.229
		c0.315,0,0.476,0.24,0.476,0.723c0,0.586-1.683,4.664-5.045,12.232c3.163-1.922,5.086-2.883,5.766-2.883
		c0.315,0.539,0.476,1.025,0.476,1.459v0.229c0,0.727-2.719,2.174-8.155,4.342v0.457c0.224,0.445,1.582,1.406,4.077,2.883
		c0,0.539,2.244,2.783,6.732,6.732c5.707,3.117,8.741,4.951,9.104,5.502v0.737c-3.914-0.435-9.347-3.64-16.296-9.614
		c0-0.246-0.321-0.568-0.967-0.967c-0.258,0-0.901,1.281-1.935,3.85c-1.745,2.824-3.347,4.822-4.799,5.994h-1.194l-0.229-1.195
		v-6.486c0-1.111-0.088-2.869-0.264-5.271c-1.596,0.164-2.789,0.246-3.586,0.246h-0.492c-0.797,5.625-1.834,10.822-3.109,15.592
		c-4.678-0.949-7.479-1.424-8.402-1.424c-0.445-0.176-1.646-0.266-3.604-0.266h-1.934c-0.306,0-0.457-0.15-0.457-0.455v-0.738
		l5.766-0.722v0.265l0.476-0.265c0.363,0,0.681,0.089,0.949,0.265l0.476-0.265l4.799,0.722l3.851-16.541h-0.229l-10.318,8.156H200.1
		c-0.232,0-0.475-0.24-0.721-0.723c0.738-2.461,2.021-5.578,3.85-9.352l-0.49,0.229h-2.146v-1.916
		c5.59-1.207,8.385-4.014,8.385-8.42l0.723-1.67h-0.477c-3.516,1.594-6.797,2.393-9.844,2.393h-0.967v-0.969
		c0-0.715,3.129-1.67,9.387-2.864C209.744,296.323,211.021,295.768,211.631,295.768z M218.592,315.683l0.475,8.633
		c2.871-3.527,4.309-5.768,4.309-6.717v-0.245C221.674,316.521,220.08,315.964,218.592,315.683z"/>
	<path fill="#00994C" d="M250.303,302.956c0.316,0,0.475,0.246,0.475,0.738c0,1.477-0.563,3.709-1.688,6.695
		c0.328,1.453,0.492,2.502,0.492,3.146v13.887c-0.305,1.617-0.779,2.426-1.424,2.426l-0.967-0.49
		c0.15-4.268,0.229-7.631,0.229-10.092v-5.992c0-0.307-0.164-0.457-0.492-0.457h-0.229c0,0.352-2.08,3.146-6.24,8.385h-1.441v-0.967
		c6.504-8.355,9.861-14.115,10.072-17.279H250.303z M259.9,299.581c1.125,0,1.688,1.688,1.688,5.063h0.457
		c0.211,0,1.816-0.238,4.816-0.721v1.195c-0.082,0.492-1.688,1.213-4.816,2.162c-0.152,0.479-0.305,0.721-0.457,0.721
		c0.305,0.809,0.457,1.371,0.457,1.688h2.654v0.967c0,0.443-0.885,0.996-2.654,1.65v0.969c0.328,0,0.492,0.088,0.492,0.264
		c5.777-1.922,9.943-2.883,12.498-2.883v0.229c0.152,0.867,0.229,1.582,0.229,2.146v0.967c0,2.098-1.125,5.537-3.375,10.318h-0.457
		c-4.09-1.277-7.131-1.916-9.123-1.916v5.025c0,0.893,0.076,2.018,0.229,3.375c-0.152,0.281-0.229,0.604-0.229,0.967h-1.688
		c-0.316,0-0.475-0.162-0.475-0.49v-1.426c0-0.537,0.074-0.938,0.229-1.193l-0.229-1.23c0-1.029,0.074-2.066,0.229-3.109
		c-0.152-1.807-0.229-3.879-0.229-6.225v-0.967c0-0.316-0.164-0.475-0.492-0.475c-3.785,1.439-6.422,2.161-7.91,2.161h-1.213
		l-0.229-1.688c4.992-0.961,8.109-1.922,9.354-2.883v-1.67l-4.8,0.703v-0.246c0.353-1.922,1.951-2.883,4.8-2.883v-2.865h-3.604
		l-1.193-0.246v-0.721c0.375-0.963,1.975-1.441,4.799-1.441c-0.633-2.063-0.949-3.656-0.949-4.781
		C259.221,299.751,259.619,299.581,259.9,299.581z M262.045,316.878c0.117,2.883,0.281,4.324,0.492,4.324
		c1.441,0,4.236,0.076,8.385,0.229c1.289-2.986,1.934-5.707,1.934-8.154h-0.229C265.572,314.048,262.045,315.249,262.045,316.878z"
		/>
</g>
</svg>
