<?xml version="1.0" encoding="utf-8"?>
<!-- Generator: Adobe Illustrator 16.0.0, SVG Export Plug-In . SVG Version: 6.00 Build 0)  -->
<!DOCTYPE svg PUBLIC "-//W3C//DTD SVG 1.1//EN" "http://www.w3.org/Graphics/SVG/1.1/DTD/svg11.dtd">
<svg version="1.1" id="图层_1" xmlns="http://www.w3.org/2000/svg" xmlns:xlink="http://www.w3.org/1999/xlink" x="0px" y="0px"
	 width="100px" height="25px" viewBox="0 0 100 25" enable-background="new 0 0 100 25" xml:space="preserve">
<g>
	<path fill="#DE0C7A" d="M39.635,0.302c1.675,0.49,3.862,2.461,5.768,4.732l0,0c1.886,2.292,3.436,4.794,3.469,6.652l0,0
		c0,0.057,0,0.119-0.01,0.177l0,0c-0.361,5.886-4.54,8.693-8.651,11.328l0,0c-0.139,0.086-0.291,0.098-0.434,0.049l0,0
		c-0.002,0-0.002,0-0.004,0l0,0c-0.007-0.004-0.017-0.006-0.021-0.008l0,0c-0.002-0.002-0.007-0.002-0.009-0.004l0,0
		c-0.006-0.002-0.012-0.004-0.017-0.006l0,0c-0.004-0.002-0.008-0.004-0.012-0.006l0,0c-0.008-0.006-0.019-0.008-0.021-0.018l0,0
		c-0.004-0.002-0.01-0.004-0.017-0.008l0,0c-0.002-0.002-0.006-0.004-0.01-0.006l0,0c-0.004-0.01-0.013-0.014-0.017-0.018l0,0
		c-0.004-0.002-0.006-0.004-0.011-0.006l0,0c-0.01-0.006-0.016-0.012-0.021-0.016l0,0l0,0l0,0c-0.011-0.006-0.019-0.012-0.021-0.02
		l0,0c-0.002,0-0.004-0.002-0.004-0.002l0,0c-0.096-0.087-0.153-0.215-0.155-0.354l0,0C39.293,15.939,39.107,6.355,39,0.771l0,0
		c-0.004-0.155,0.063-0.303,0.188-0.398l0,0c0.089-0.068,0.19-0.104,0.304-0.104l0,0C39.549,0.285,39.592,0.29,39.635,0.302
		L39.635,0.302z M47.884,11.79c0.002-0.023,0.005-0.06,0.005-0.104l0,0c0.03-1.297-1.407-3.847-3.236-6.019l0,0
		c-1.526-1.852-3.367-3.5-4.644-4.156l0,0c0.104,5.41,0.27,13.921,0.408,20.37l0,0C44.259,19.377,47.569,16.84,47.884,11.79
		L47.884,11.79z"/>
	<path fill="#DE0C7A" d="M51.342,1.269C56.453,5.127,58.982,8.502,59,11.906l0,0c-0.021,3.619-2.869,6.84-7.889,10.274l0,0
		c-0.021,0.019-0.049,0.031-0.068,0.046l0,0c-0.004,0.002-0.008,0.002-0.018,0.004l0,0c-0.002,0.002-0.004,0.002-0.006,0.004l0,0
		c-0.215,0.096-0.473,0.026-0.604-0.174l0,0c-0.041-0.063-0.063-0.128-0.078-0.195l0,0c0-0.002,0-0.004-0.002-0.006l0,0
		c0-0.002,0-0.006,0-0.011l0,0c-0.002-0.01-0.004-0.021-0.004-0.032l0,0c-0.136-2.028-0.187-3.978-0.188-5.869l0,0
		c0.002-5.12,0.363-9.79,0.402-14.286l0,0c0.002-0.187,0.104-0.356,0.271-0.439l0,0c0.066-0.033,0.145-0.05,0.221-0.05l0,0
		C51.152,1.169,51.258,1.202,51.342,1.269L51.342,1.269z M58.016,11.905c0.018-2.7-1.988-5.715-6.49-9.253l0,0
		c-0.074,4.235-0.389,8.589-0.389,13.294l0,0c0.002,1.601,0.035,3.242,0.129,4.933l0,0C55.758,17.687,58.033,14.778,58.016,11.905
		L58.016,11.905z"/>
</g>
<g>
	<path fill="#E3087B" d="M26.687,2.167L21.518,2c-0.135-0.004-0.27,0.048-0.367,0.144C21.054,2.241,20.999,2.375,21,2.511
		l0.226,18.24c0.004,0.272,0.225,0.336,0.497,0.34l4.996-0.099c0.003,0,0.005,0,0.008,0c0.132,0,0.259,0.104,0.352,0.01
		c0.097-0.095,0.149-0.146,0.147-0.279L27.168,2.632C27.168,2.359,26.955,2.176,26.687,2.167z"/>
	<path fill="#E3087B" d="M36.858,2.492c-0.096-0.096-0.227-0.151-0.355-0.153l-5.335-0.056c-0.135,0-0.264,0.052-0.357,0.147
		c-0.096,0.092-0.148,0.221-0.15,0.357l-0.056,18.352c0,0.139,0.056,0.449,0.155,0.545C30.854,21.771,30.979,22,31.106,22
		c0.01,0,0.019,0,0.028,0l4.999-0.459c0.263-0.02,0.468-0.32,0.474-0.583L37,2.899C37,2.764,36.952,2.589,36.858,2.492z"/>
</g>
<path fill="#E3087B" d="M18.998,10.999c-0.036-1.124-1.069-2.086-2.476-3.101C12.273,4.912,3.659,1.52,1.524,0.204L1.179,0H0.59
	C0.428,0,0.277,0.164,0.167,0.262C0.055,0.355-0.004,0.539,0,0.674C0.19,5.968,0.554,13.473,0.554,20.41
	c0,0.357-0.001,0.73-0.001,1.088c0,0.154,0.085,0.309,0.235,0.4C0.891,21.964,1.013,22,1.138,22c0.057,0,0.113-0.004,0.168-0.02
	c1.294-0.338,5.525-2.312,9.616-4.565c2.033-1.126,3.996-2.313,5.478-3.396c1.465-1.119,2.517-1.996,2.601-3
	C19,11.014,18.998,10.999,18.998,10.999z"/>
<g>
	<path fill="#E3087B" d="M71.502,0.344c-0.191-0.53-0.951-0.399-0.99,0.06c-1.92,2.061-3.811,4.16-5.971,5.971
		c-0.08,0.058-0.119,0.128-0.141,0.208c-1.25-0.1-2.619-0.469-3.648,0.41c-0.256,0.219-0.422,0.527-0.537,0.879
		c0,0.001,0,0.001,0,0.002c-0.016,2.605-0.15,5.208-0.215,7.812c0.004,0.006,0.006,0.012,0.012,0.018
		c0.98,1.102,3.26,0.67,4.51,0.643c0.061,0,0.109-0.012,0.16-0.031c0.01,0.09,0.039,0.18,0.109,0.26
		c1.689,1.951,3.189,4.051,4.67,6.15c0.35,0.49,1.109,0.09,0.91-0.4C75.461,16.844,73.74,6.714,71.502,0.344z"/>
	<path fill="#E3087B" d="M75.629,5.341c-0.158-0.625-1.123-0.359-0.965,0.266c1.004,3.981,1.264,7.811,0.5,11.86
		c-0.119,0.631,0.844,0.896,0.965,0.266C76.926,13.51,76.676,9.493,75.629,5.341z"/>
	<path fill="#E3087B" d="M78.521,3.39c-0.084-0.629-1.084-0.638-1,0c0.707,5.396,1.824,10.727,0.018,16.036
		c-0.209,0.609,0.758,0.873,0.965,0.266C80.338,14.303,79.238,8.872,78.521,3.39z"/>
</g>
<g>
	<g>
		<path fill="#E3087B" d="M91.52,0.344c-0.189-0.53-0.951-0.399-0.992,0.06c-1.924,2.061-3.816,4.16-5.979,5.971
			c-0.08,0.06-0.121,0.129-0.141,0.209c-1.252-0.1-2.625-0.469-3.656,0.41c-0.256,0.219-0.42,0.527-0.537,0.879
			c0,0.001,0,0.001,0,0.002c-0.016,2.605-0.15,5.207-0.215,7.813c0.004,0.006,0.006,0.012,0.012,0.018
			c0.98,1.1,3.264,0.67,4.518,0.641c0.061,0,0.109-0.01,0.16-0.031c0.01,0.09,0.039,0.18,0.109,0.26
			c1.693,1.951,3.195,4.051,4.678,6.15c0.352,0.49,1.111,0.09,0.91-0.4C95.484,16.844,93.762,6.714,91.52,0.344z"/>
	</g>
	<path fill="#E3087B" d="M99.924,15.346c-0.773-1.303-1.568-2.591-2.371-3.876c0.549-1.274,1.104-2.546,1.547-3.863
		c0.205-0.613-0.762-0.874-0.967-0.266c-0.355,1.057-0.783,2.083-1.221,3.105c-0.705-1.119-1.41-2.235-2.121-3.35
		c-0.346-0.542-1.213-0.041-0.865,0.505c0.842,1.318,1.678,2.636,2.508,3.96c-0.65,1.516-1.275,3.042-1.682,4.655
		c-0.156,0.625,0.809,0.891,0.967,0.266c0.336-1.338,0.826-2.615,1.355-3.879c0.668,1.079,1.338,2.157,1.984,3.249
		C99.389,16.404,100.256,15.902,99.924,15.346z"/>
</g>
</svg>
