<?xml version="1.0" encoding="utf-8"?>
<!-- Generator: Adobe Illustrator 16.0.0, SVG Export Plug-In . SVG Version: 6.00 Build 0)  -->
<!DOCTYPE svg PUBLIC "-//W3C//DTD SVG 1.1//EN" "http://www.w3.org/Graphics/SVG/1.1/DTD/svg11.dtd">
<svg version="1.1" id="图层_1" xmlns="http://www.w3.org/2000/svg" xmlns:xlink="http://www.w3.org/1999/xlink" x="0px" y="0px"
	 width="460px" height="590px" viewBox="0 0 460 590" enable-background="new 0 0 460 590" xml:space="preserve">
<path fill="none" stroke="#E6067C" stroke-width="2" stroke-miterlimit="10" d="M417.166,0.169
	c-4.347,35.327-10.983,69.54-20.734,103.749c-10.625,37.274-23.646,73.769-33.814,111.218
	c-10.295,37.915-19.36,76.156-29.571,114.095c-11.162,41.475-21.335,84.365-37.688,124.156
	c-10.81,26.305-23.589,86.058-56.811,71.044c-27.461-12.408-33.552-104.721-48.945-129.063
	c-21.23-33.576-52.017-52.109-92.724-48.381c-32.912,3.015-53.727,22.886-71.308,50.396C7.713,425.325,0.988,472.152,4.035,504.623
	c3.346,35.647,13.545,58.74,45.335,76.976c6.573,3.771,4.352,3.302,11.468,5.908"/>
<path fill="none" stroke="#E6067C" stroke-width="2" stroke-miterlimit="10" d="M426.5,0.835
	c-10.398,41.191-18.077,82.707-26.763,124.25c-8.451,40.429-23.196,77.188-34.239,116.976
	c-11.887,42.833-24.876,78.403-33.427,120.021c-8.014,39.005-20.5,82.274-39.21,126.755c-10.931,25.985-29.119,56.273-59.694,41.04
	c-27.842-13.872-33.813-101.204-47.974-125.707c-20.806-36.004-51.051-58.186-94.691-50.764
	c-34.851,5.927-56.824,38.486-68.807,70.055c-8.126,21.409-11.791,60.034-7.88,82.599c6.031,34.802,20.766,51.463,50.77,70.336
	c8.034,5.053,16.197,6.783,24.724,10.945"/>
<path fill="none" stroke="#E6067C" stroke-width="2" stroke-miterlimit="10" d="M437.834-0.498
	c-3.415,27.48-12.236,53.022-18.022,79.909c-6.276,29.165-11.126,50.747-19.148,79.531c-8.516,30.558-22.147,66.15-31.9,96.115
	c-11.272,34.632-15.062,71.522-24.474,106.707c-8.823,32.991-18.578,68.528-32.772,99.713
	c-13.021,28.606-25.499,83.615-59.504,82.343c-49.843-1.866-52.466-84.997-66.818-118.983
	c-18.005-42.639-53.724-83.273-103.291-63.243c-41.781,16.884-56.238,64.302-60.069,104.576
	c-4.062,42.686,3.188,72.558,40.948,98.181c9.573,6.498,40.027,18.798,50.719,23.138"/>
<path fill="none" stroke="#E6067C" stroke-width="2" stroke-miterlimit="10" d="M449.834-0.498
	c-8.165,29.358-14.491,58.933-20.775,88.724c-6.669,31.61-13.026,62.72-22.479,93.673c-10.979,35.958-25.18,70.826-35.02,107.158
	c-10.166,37.536-25.738,121.112-43.727,159.112c-16.384,34.608-9.169,39.369-31.877,77.86
	c-17.724,30.04-42.922,34.066-73.237,14.575C191.22,520.35,185.006,427.11,162.506,398.5
	c-33.868-43.063-50.324-40.667-85.004-28.333c-37.667,14-51.714,94.676-47.386,127.334c5.105,38.53,36.788,69.333,79.051,76.667
	c8.083,1.402,48.598,9.806,56.002,13.339"/>
<path fill="#E6067C" d="M62.157,586.067c-0.082-0.102-0.155-0.211-0.242-0.308c-0.726-0.814-2.091-0.737-2.828,0
	c-0.766,0.766-0.723,1.897-0.092,2.706c0.012,0.019,0.026,0.04,0.048,0.074c0.122,0.19,0.298,0.461,0.44,0.591
	c0.321,0.294,0.707,0.577,1.152,0.638c1.08,0.146,2.143-0.241,2.46-1.397C63.317,587.573,62.935,586.477,62.157,586.067z"/>
<path fill="#E6067C" d="M92.502,587.174c0-1.054-0.91-2.048-2-2c-1.071,0.047-2.156,0.524-2.428,1.677
	c-0.28,1.186,0.416,2.171,1.419,2.716c0.958,0.521,2.173,0.244,2.736-0.717c0.231-0.396,0.299-0.859,0.235-1.303
	C92.487,587.427,92.502,587.303,92.502,587.174z"/>
<path fill="#E6067C" d="M166.295,585.889c-0.277-0.284-0.587-0.446-0.961-0.591c-1.02-0.394-2.092,0.313-2.563,1.186
	c-0.402,0.746-0.381,1.834,0.313,2.424c0.631,0.537,1.314,0.789,2.081,0.877c0.144,0.023,0.289,0.034,0.433,0.027
	c0.079,0.003,0.153,0.015,0.234,0.015c1.09,0.002,2-0.911,2-2C167.831,586.895,167.166,586.104,166.295,585.889z"/>
<path fill="#E6067C" d="M116.085,586.492c-0.352-0.464-0.78-0.91-1.393-1.005c-0.719-0.11-1.204,0.008-1.866,0.293
	c-1.002,0.432-1.217,1.883-0.718,2.736c0.187,0.318,0.429,0.541,0.7,0.696c0.354,0.57,0.981,0.961,1.694,0.961
	c1.088,0,2.003-0.91,2-2C116.5,587.622,116.431,586.949,116.085,586.492z"/>
</svg>
