<?xml version="1.0" encoding="utf-8"?>
<!-- Generator: Adobe Illustrator 16.0.0, SVG Export Plug-In . SVG Version: 6.00 Build 0)  -->
<!DOCTYPE svg PUBLIC "-//W3C//DTD SVG 1.1//EN" "http://www.w3.org/Graphics/SVG/1.1/DTD/svg11.dtd">
<svg version="1.1" id="图层_1" xmlns="http://www.w3.org/2000/svg" xmlns:xlink="http://www.w3.org/1999/xlink" x="0px" y="0px"
	 width="460px" height="590px" viewBox="0 0 460 590" enable-background="new 0 0 460 590" xml:space="preserve">
<g>
	<path fill="#E6067C" d="M386.659,171.81c-4.341,15.5-9.224,29.756-14.177,44.347c-4.529,13.344-8.467,27.481-12.146,41.892
		c-3.893,15.244-7.496,30.6-11.652,45.578c-4.123,14.861-8.035,29.864-9.856,46.191c-0.177,1.576,0.815,1.699,0.993,0.116
		c1.881-16.85,6.031-32.185,10.275-47.481c4.149-14.956,7.729-30.391,11.615-45.613c7.748-30.345,18.064-56.549,26.359-86.174
		c15.184-54.222,25.584-112.619,38.932-168.395l-1.032-0.129C412.575,57.913,401.973,117.121,386.659,171.81z"/>
	<path fill="#E6067C" d="M333.006,351.896c5.896-31.162,12.422-62.056,20.168-91.832c8.318-31.964,17.529-62.939,26.583-94.039
		c8.697-29.875,16.902-60.043,25.218-90.361c6.516-23.756,13.06-48.313,16.99-74.023l-0.995-0.124
		c-3.956,25.708-10.77,51.132-17.405,75.327c-8.138,29.671-16.188,59.265-24.694,88.507c-8.859,30.462-17.759,60.771-26.033,91.925
		c-8.046,30.295-14.687,62.042-20.708,93.874C331.838,352.682,332.715,353.441,333.006,351.896z"/>
	<path fill="#E6067C" d="M447.714,4.856l-0.978-0.122c-18.933,129.654-66.256,233.702-93.111,357.242
		c-0.012,0.056,0-0.079-0.012-0.024l1.027,0.128C381.568,238.511,428.8,134.512,447.714,4.856z"/>
	<path fill="#E6067C" d="M355.275,307.511c-3.215,16.774-5.451,33.93-9.367,50.311c-0.36,1.504,0.517,2.27,0.875,0.77
		c3.74-15.646,6.037-32.012,8.961-48.121c3.273-18.046,8.205-34.389,13.417-50.472c5.007-15.449,10.413-30.273,15.755-45.16
		c4.873-13.582,9.217-27.832,13.287-42.559c14.966-54.133,24.996-113.04,36.61-169.032L433.8,3.12
		c-11.608,55.994-21.661,114.276-36.472,168.39c-8.68,31.71-19.775,59.143-29.529,89.241
		C362.959,275.683,358.464,290.875,355.275,307.511z"/>
	<path fill="#E6067C" d="M133.752,372.068c-8.941-5.207-18.466-8.068-28.854-7.405c-10.329,0.659-20.411,3.894-30.531,5.854
		c-0.633,0.123-0.364,1.086,0.266,0.966c9.844-1.908,19.578-4.894,29.594-5.77c10.408-0.91,20.073,2.006,29.021,7.218
		C133.806,373.257,134.309,372.393,133.752,372.068z"/>
	<path fill="#E6067C" d="M159.354,378.646c-12.435-10.806-27.188-17.349-43.71-18.181c-16.903-0.852-33.739,3.754-49.776,8.551
		c-0.616,0.186-0.354,1.15,0.266,0.966c15.594-4.665,31.688-8.952,48.097-8.568c16.717,0.393,31.878,7.045,44.417,17.938
		C159.131,379.774,159.841,379.07,159.354,378.646z"/>
	<path fill="#E6067C" d="M170.687,375.98c-3.53-3.011-6.575-6.554-10.397-9.218c-3.723-2.595-8.307-3.983-12.638-5.143
		c-10.748-2.875-21.382-4.855-32.551-4.157c-5.797,0.362-11.497,1.136-17.318,1.276c-5.662,0.137-10.994,0.71-16.512,1.973
		c-9.369,2.146-19.227,3.691-27.522,8.855c-0.546,0.34-0.044,1.204,0.505,0.862c7.979-4.967,17.481-6.57,26.516-8.582
		c5.369-1.192,10.551-1.93,16.06-2.085c5.498-0.154,10.87-0.634,16.339-1.148c5.469-0.516,10.977-0.453,16.433,0.164
		c5.198,0.586,10.308,1.986,15.387,3.203c4.693,1.122,9.179,2.551,13.453,4.815c4.468,2.367,7.74,6.648,11.54,9.889
		C170.468,377.104,171.179,376.398,170.687,375.98z"/>
	<path fill="#E6067C" d="M185.021,375.313c-9.07-7.116-18.699-13.524-29.514-17.666c-10.792-4.132-22.357-5.423-33.847-5.299
		c-7.31,0.078-14.611,1.123-21.903,1.639c-7.433,0.523-15.029,0.477-22.409,1.5c-13.826,1.918-25.972,9.859-39.48,13.031
		c-0.628,0.146-0.361,1.111,0.266,0.965c13.011-3.056,24.663-10.231,37.821-12.758c7.11-1.363,14.688-1.132,21.905-1.608
		c7.381-0.489,14.772-1.531,22.161-1.736c11.526-0.32,23.053,0.912,33.962,4.771c11.145,3.938,21.092,10.62,30.331,17.87
		C184.814,376.412,185.527,375.711,185.021,375.313z"/>
	<path fill="#E6067C" d="M265.748,519.901c-8.921,5.022-18.448,7.539-27.496,1.334c-0.533-0.366-1.031,0.501-0.504,0.862
		c4.188,2.873,8.763,4.296,13.852,3.94c5.219-0.364,10.17-2.749,14.652-5.274C266.813,520.448,266.311,519.584,265.748,519.901z"/>
	<path fill="#E6067C" d="M275.748,519.901c-7.119,4.955-15.014,9.305-23.736,10.435c-9.033,1.17-17.15-2.566-23.325-9.023
		c-0.446-0.467-1.152,0.241-0.707,0.707c6.258,6.547,14.218,10.16,23.342,9.392c9.104-0.77,17.582-5.531,24.93-10.646
		C276.777,520.399,276.277,519.532,275.748,519.901z"/>
	<path fill="#E6067C" d="M285.234,518.081c-14.416,21.366-51.9,22.911-67.136,1.667c-0.372-0.521-1.24-0.021-0.863,0.504
		c15.685,21.872,54.003,20.357,68.863-1.667C286.461,518.049,285.594,517.549,285.234,518.081z"/>
	<path fill="#E6067C" d="M291.902,519.414c-8.934,11.823-23.678,20.587-38.803,19.81c-3.382-0.174-6.789-0.587-10.154-0.952
		c-4.063-0.442-8.359-1.021-12.121-2.712c-7.222-3.245-12.955-9.064-18.471-14.579c-0.457-0.456-1.164,0.25-0.707,0.706
		c5.837,5.835,11.808,11.65,19.435,15.078c3.149,1.416,6.825,1.858,10.216,2.31c4.15,0.551,8.391,0.975,12.572,1.188
		c15.109,0.777,30.055-8.642,38.896-20.345C293.154,519.403,292.285,518.906,291.902,519.414z"/>
	<path fill="#E6067C" d="M130.946,586.103c-0.298-0.807-0.82-1.688-1.754-1.845c-0.215-0.036-0.422-0.037-0.622-0.018
		c-2.083-6.611-6.084-12.133-11.738-16.291c-6.479-4.767-14.366-7.408-22.015-9.604c-16.398-4.706-35.308-6.815-48.836-18.13
		c-3.371-2.818-6.133-6.271-8.215-10.133c-0.306-0.568-1.169-0.063-0.863,0.504c8.183,15.184,25.563,20.426,41.161,24.446
		c15.453,3.982,34.979,6.853,45.175,20.569c2.007,2.699,3.431,5.76,4.413,8.961c-0.312,0.202-0.58,0.485-0.781,0.848
		c-0.305,0.549-0.244,1.214,0.124,1.685c0.162,0.563,0.619,1.03,1.38,1.03c0,0,0.001,0,0.001,0c0.179,0.079,0.386,0.125,0.624,0.125
		c0.385,0,0.689-0.121,0.921-0.312C130.647,587.724,131.228,586.862,130.946,586.103z"/>
	<path fill="#E6067C" d="M123.644,587.343c0.039-0.275,0.012-0.557-0.098-0.804c-0.012-0.326-0.077-0.69-0.263-0.958
		c-0.456-0.655-1.058-0.828-1.69-0.751c-3.91-4.581-9.157-7.821-14.56-10.421c-7.447-3.583-15.417-6.025-23.321-8.364
		c-8.299-2.456-16.669-4.698-24.838-7.569c-7.096-2.493-14.363-5.51-20.131-10.456c-5.288-4.535-8.033-10.712-7.575-17.685
		c0.042-0.645-0.958-0.64-1,0c-0.956,14.536,11.502,22.388,23.438,27.223c15.843,6.419,32.868,9.347,48.69,15.837
		c6.635,2.722,13.469,6.27,18.26,11.748c-0.049,0.021-0.098,0.04-0.146,0.063c-0.441,0.211-0.778,0.811-0.743,1.295
		c0.053,0.745,0.314,1.26,0.928,1.689c0.167,0.118,0.388,0.182,0.59,0.223c0.05,0.009,0.101,0.016,0.151,0.023
		c0.287,0.198,0.651,0.256,1.003,0.208c0.316-0.027,0.625-0.153,0.888-0.417C123.489,587.966,123.616,587.658,123.644,587.343z"/>
	<g>
		<path fill="#E6067C" d="M100.333,587.883C100.328,588.17,100.484,587.545,100.333,587.883L100.333,587.883z"/>
		<path fill="#E6067C" d="M100.323,587.902C100.323,587.902,100.323,587.902,100.323,587.902c0.004-0.009,0.006-0.012,0.01-0.02
			c0-0.002,0-0.003,0-0.004C100.33,587.887,100.327,587.894,100.323,587.902z"/>
		<path fill="#E6067C" d="M100.323,587.902c0.002-0.023,0.009-0.045,0.01-0.068c-0.001,0.021,0,0.028,0,0.045
			c0.155-0.364,0.255-0.623,0.289-1.029c0.055-0.683-0.29-1.257-0.728-1.743c-0.335-0.373-0.983-0.551-1.459-0.386
			c-0.24,0.083-0.479,0.189-0.707,0.313c-7.591-5.412-16.32-8.452-25.328-10.712c-9.71-2.438-19.855-3.891-29.117-7.828
			c-6.742-2.867-12.078-7.501-15.878-13.743c-3.845-6.313-6.358-13.395-9.64-20.001c-0.287-0.578-1.149-0.071-0.863,0.504
			c3.289,6.62,5.861,13.635,9.64,20.002c3.453,5.817,8.339,10.23,14.381,13.246c8.665,4.325,18.64,5.839,27.99,8.01
			c9.936,2.308,19.692,5.318,28.078,11.223c-0.061,0.111-0.126,0.218-0.155,0.354c-0.101,0.473-0.016,0.846,0.188,1.275
			c0.001,0.003,0.003,0.005,0.004,0.007c0.047,0.274,0.158,0.523,0.321,0.731c0.108,0.693,0.793,1.233,1.484,1.233
			C99.666,589.334,100.242,588.688,100.323,587.902c-0.001,0.003-0.001,0.003-0.002,0.006
			C100.322,587.906,100.322,587.904,100.323,587.902z"/>
	</g>
	<path fill="#E6067C" d="M71.795,586.744c-0.245-0.551-1.003-0.779-1.551-0.895c-0.465-0.099-0.902-0.07-1.29,0.082
		c-8.969-10.499-23.27-12.605-35.697-17.645c-7.931-3.216-14.245-8.244-18.568-15.684c-4.036-6.944-6.16-14.895-8.874-22.401
		c-0.217-0.603-1.184-0.342-0.964,0.266c2.608,7.214,4.753,14.657,8.331,21.476c3.553,6.771,8.95,12.078,15.781,15.502
		c13.057,6.543,29.394,7.577,39.208,19.091c-0.037,0.046-0.081,0.075-0.115,0.126c-0.191,0.283-0.222,0.621-0.258,0.948
		c-0.22,0.541-0.154,1.157,0.307,1.617c0.353,0.354,0.918,0.506,1.417,0.401c0.103,0.023,0.207,0.038,0.31,0.038
		c0.277,0,0.518-0.075,0.726-0.196c0.244,0.044,0.503-0.099,0.59-0.313c0.405-0.193,0.725-0.559,0.852-0.989
		C72.153,587.651,72.003,587.214,71.795,586.744z"/>
</g>
</svg>
