<?xml version="1.0" encoding="utf-8"?>
<!-- Generator: Adobe Illustrator 16.0.0, SVG Export Plug-In . SVG Version: 6.00 Build 0)  -->
<!DOCTYPE svg PUBLIC "-//W3C//DTD SVG 1.1//EN" "http://www.w3.org/Graphics/SVG/1.1/DTD/svg11.dtd">
<svg version="1.1" id="图层_1" xmlns="http://www.w3.org/2000/svg" xmlns:xlink="http://www.w3.org/1999/xlink" x="0px" y="0px"
	 width="460px" height="590px" viewBox="0 0 460 590" enable-background="new 0 0 460 590" xml:space="preserve">
<g>
	<path fill="#E6067C" d="M386.659,171.81c-4.341,15.5-9.225,29.756-14.177,44.347c-4.529,13.344-8.468,27.481-12.146,41.892
		c-3.893,15.244-7.496,30.6-11.652,45.578c-4.123,14.861-8.034,29.864-9.855,46.191c-0.177,1.576,0.814,1.699,0.993,0.115
		c1.881-16.85,6.03-32.185,10.274-47.48c4.149-14.956,7.729-30.391,11.615-45.613c7.748-30.345,18.064-56.549,26.359-86.174
		c15.184-54.222,25.584-112.619,38.932-168.395l-1.032-0.129C412.575,57.913,401.973,117.121,386.659,171.81z"/>
	<path fill="#E6067C" d="M333.006,351.896c5.896-31.162,12.422-62.057,20.168-91.833c8.318-31.964,17.529-62.939,26.583-94.039
		c8.697-29.875,16.902-60.043,25.218-90.361c6.517-23.756,13.061-48.313,16.99-74.023l-0.995-0.124
		c-3.956,25.708-10.77,51.132-17.404,75.327c-8.139,29.671-16.188,59.265-24.694,88.507c-8.859,30.462-17.759,60.771-26.033,91.925
		c-8.046,30.295-14.687,62.042-20.708,93.875C331.838,352.682,332.715,353.441,333.006,351.896z"/>
	<path fill="#E6067C" d="M447.714,4.856l-0.978-0.122c-18.934,129.654-66.256,233.702-93.111,357.243
		c-0.012,0.056,0-0.08-0.012-0.024l1.026,0.128C381.568,238.511,428.8,134.512,447.714,4.856z"/>
	<path fill="#E6067C" d="M355.275,307.511c-3.216,16.774-5.451,33.931-9.367,50.312c-0.36,1.504,0.517,2.27,0.875,0.77
		c3.74-15.646,6.037-32.012,8.961-48.121c3.272-18.046,8.205-34.389,13.417-50.472c5.007-15.449,10.413-30.273,15.755-45.16
		c4.873-13.582,9.217-27.832,13.287-42.559c14.966-54.133,24.996-113.04,36.609-169.032L433.8,3.12
		c-11.607,55.994-21.661,114.276-36.472,168.39c-8.68,31.71-19.775,59.143-29.529,89.241
		C362.959,275.683,358.464,290.875,355.275,307.511z"/>
	<path fill="#E6067C" d="M133.752,375.188c-8.941-6.294-18.466-9.753-28.854-8.951c-10.329,0.797-20.411,4.706-30.531,7.076
		c-0.633,0.149-0.364,1.313,0.266,1.167c9.844-2.306,19.578-5.916,29.594-6.975c10.408-1.1,20.073,2.425,29.021,8.727
		C133.806,376.624,134.309,375.579,133.752,375.188z"/>
	<path fill="#E6067C" d="M159.354,383.139c-12.435-13.063-27.188-20.972-43.71-21.978c-16.903-1.029-33.739,4.538-49.776,10.336
		c-0.616,0.226-0.354,1.391,0.266,1.169c15.594-5.641,31.688-10.822,48.097-10.357c16.717,0.475,31.878,8.516,44.417,21.683
		C159.131,384.501,159.841,383.651,159.354,383.139z"/>
	<path fill="#E6067C" d="M170.687,379.916c-3.53-3.64-6.575-7.923-10.397-11.144c-3.723-3.136-8.307-4.813-12.638-6.216
		c-10.748-3.476-21.382-5.869-32.551-5.025c-5.797,0.438-11.497,1.373-17.318,1.543c-5.662,0.165-10.994,0.858-16.512,2.385
		c-9.369,2.595-19.227,4.462-27.522,10.704c-0.546,0.411-0.044,1.454,0.505,1.041c7.979-6.004,17.481-7.941,26.516-10.374
		c5.369-1.439,10.551-2.332,16.06-2.519c5.498-0.187,10.87-0.768,16.339-1.389c5.469-0.623,10.977-0.548,16.433,0.198
		c5.198,0.709,10.308,2.401,15.387,3.872c4.693,1.355,9.179,3.084,13.453,5.82c4.468,2.861,7.74,8.036,11.54,11.953
		C170.468,381.274,171.179,380.422,170.687,379.916z"/>
	<path fill="#E6067C" d="M185.021,379.109c-9.07-8.602-18.699-16.348-29.514-21.354c-10.792-4.994-22.357-6.555-33.847-6.405
		c-7.31,0.094-14.611,1.357-21.903,1.98c-7.433,0.633-15.029,0.577-22.409,1.813c-13.826,2.318-25.972,11.918-39.48,15.752
		c-0.628,0.177-0.361,1.343,0.266,1.166c13.011-3.693,24.663-12.366,37.821-15.422c7.11-1.647,14.688-1.367,21.905-1.942
		c7.381-0.592,14.772-1.852,22.161-2.099c11.526-0.388,23.053,1.103,33.962,5.768c11.145,4.76,21.092,12.836,30.331,21.6
		C184.814,380.438,185.527,379.591,185.021,379.109z"/>
	<path fill="#E6067C" d="M265.748,516.752c-8.921,6.289-18.448,9.441-27.496,1.671c-0.533-0.459-1.031,0.627-0.504,1.078
		c4.188,3.599,8.763,5.38,13.852,4.936c5.219-0.457,10.17-3.443,14.652-6.605C266.813,517.437,266.311,516.354,265.748,516.752z"/>
	<path fill="#E6067C" d="M275.748,516.752c-7.119,6.205-15.014,11.652-23.736,13.067c-9.033,1.466-17.15-3.213-23.325-11.299
		c-0.446-0.586-1.152,0.301-0.707,0.884c6.258,8.2,14.218,12.725,23.342,11.763c9.104-0.965,17.582-6.927,24.93-13.333
		C276.777,517.376,276.277,516.29,275.748,516.752z"/>
	<path fill="#E6067C" d="M285.234,514.473c-14.416,26.758-51.9,28.692-67.136,2.087c-0.372-0.652-1.24-0.026-0.863,0.632
		c15.685,27.391,54.003,25.494,68.863-2.088C286.461,514.432,285.594,513.806,285.234,514.473z"/>
	<path fill="#E6067C" d="M291.902,516.142c-8.935,14.807-23.678,25.782-38.803,24.809c-3.383-0.218-6.789-0.735-10.154-1.191
		c-4.063-0.554-8.359-1.279-12.121-3.397c-7.222-4.063-12.955-11.351-18.471-18.257c-0.457-0.571-1.164,0.313-0.707,0.883
		c5.837,7.309,11.808,14.591,19.435,18.884c3.149,1.772,6.825,2.327,10.216,2.894c4.15,0.689,8.391,1.22,12.572,1.486
		c15.109,0.974,30.055-10.822,38.896-25.479C293.154,516.128,292.285,515.506,291.902,516.142z"/>
	<path fill="#E6067C" d="M130.946,585.884c-0.298-0.856-0.82-1.791-1.754-1.958c-0.215-0.038-0.422-0.039-0.622-0.019
		c-2.083-7.018-6.084-12.878-11.738-17.292c-6.479-5.061-14.366-7.863-22.015-10.194c-16.398-4.995-35.308-7.232-48.836-19.243
		c-3.371-2.99-6.133-6.655-8.215-10.755c-0.306-0.604-1.169-0.067-0.863,0.535c8.183,16.117,25.563,21.68,41.161,25.947
		c15.453,4.226,34.979,7.273,45.175,21.831c2.007,2.865,3.431,6.115,4.413,9.513c-0.312,0.214-0.58,0.515-0.781,0.899
		c-0.305,0.583-0.244,1.289,0.124,1.788c0.162,0.599,0.619,1.094,1.38,1.094h0.001c0.179,0.084,0.386,0.133,0.624,0.133
		c0.385,0,0.689-0.129,0.921-0.331C130.647,587.604,131.228,586.69,130.946,585.884z"/>
	<path fill="#E6067C" d="M123.644,587.2c0.039-0.291,0.012-0.591-0.098-0.854c-0.012-0.346-0.077-0.732-0.263-1.017
		c-0.456-0.695-1.058-0.879-1.69-0.797c-3.91-4.862-9.157-8.302-14.56-11.061c-7.447-3.804-15.417-6.396-23.321-8.878
		c-8.299-2.607-16.669-4.987-24.838-8.034c-7.096-2.646-14.363-5.849-20.131-11.098c-5.288-4.813-8.033-11.371-7.575-18.771
		c0.042-0.685-0.958-0.679-1,0c-0.956,15.429,11.502,23.763,23.438,28.895c15.843,6.814,32.868,9.922,48.69,16.811
		c6.635,2.889,13.469,6.654,18.26,12.469c-0.049,0.022-0.098,0.042-0.146,0.067c-0.441,0.224-0.778,0.86-0.743,1.374
		c0.053,0.791,0.314,1.337,0.928,1.793c0.167,0.125,0.388,0.193,0.59,0.236c0.05,0.01,0.101,0.017,0.151,0.025
		c0.287,0.209,0.651,0.271,1.003,0.22c0.316-0.028,0.625-0.162,0.888-0.441C123.489,587.861,123.616,587.535,123.644,587.2z"/>
	<g>
		<path fill="#E6067C" d="M100.333,587.883C100.328,588.17,100.484,587.545,100.333,587.883L100.333,587.883z"/>
		<path fill="#E6067C" d="M100.323,587.902L100.323,587.902c0.004-0.01,0.006-0.013,0.01-0.021c0-0.002,0-0.003,0-0.004
			C100.33,587.887,100.327,587.894,100.323,587.902z"/>
		<path fill="#E6067C" d="M100.323,587.794c0.002-0.024,0.009-0.048,0.01-0.072c-0.001,0.021,0,0.03,0,0.048
			c0.155-0.387,0.255-0.662,0.289-1.093c0.055-0.725-0.29-1.334-0.728-1.85c-0.335-0.396-0.983-0.585-1.459-0.41
			c-0.24,0.088-0.479,0.201-0.707,0.333c-7.591-5.745-16.32-8.972-25.328-11.37c-9.71-2.588-19.855-4.131-29.117-8.309
			c-6.742-3.044-12.078-7.962-15.878-14.587c-3.845-6.7-6.358-14.218-9.64-21.229c-0.287-0.614-1.149-0.076-0.863,0.534
			c3.289,7.027,5.861,14.473,9.64,21.23c3.453,6.175,8.339,10.859,14.381,14.06c8.665,4.591,18.64,6.197,27.99,8.502
			c9.936,2.45,19.692,5.645,28.078,11.913c-0.061,0.117-0.126,0.231-0.155,0.375c-0.101,0.503-0.016,0.898,0.188,1.354
			c0.001,0.003,0.003,0.006,0.004,0.008c0.047,0.291,0.158,0.556,0.321,0.776c0.108,0.734,0.793,1.308,1.484,1.308
			C99.666,589.313,100.242,588.629,100.323,587.794c-0.001,0.003-0.001,0.003-0.002,0.006
			C100.322,587.798,100.322,587.796,100.323,587.794z"/>
	</g>
	<path fill="#E6067C" d="M71.795,586.564c-0.245-0.584-1.003-0.827-1.551-0.95c-0.465-0.104-0.902-0.073-1.29,0.087
		c-8.969-11.144-23.27-13.379-35.697-18.729c-7.931-3.413-14.245-8.75-18.568-16.647c-4.036-7.37-6.16-15.81-8.874-23.776
		c-0.217-0.641-1.184-0.362-0.964,0.282c2.608,7.657,4.753,15.558,8.331,22.796c3.553,7.187,8.95,12.818,15.781,16.454
		c13.057,6.944,29.394,8.042,39.208,20.263c-0.037,0.049-0.081,0.08-0.115,0.134c-0.191,0.301-0.222,0.659-0.258,1.007
		c-0.22,0.574-0.154,1.227,0.307,1.715c0.353,0.377,0.918,0.538,1.417,0.427c0.103,0.024,0.207,0.04,0.31,0.04
		c0.277,0,0.518-0.08,0.726-0.208c0.244,0.046,0.503-0.105,0.59-0.332c0.405-0.205,0.725-0.594,0.852-1.05
		C72.153,587.527,72.003,587.063,71.795,586.564z"/>
</g>
</svg>
